<?xml version="1.0" standalone="no"?>
<!DOCTYPE svg PUBLIC "-//W3C//DTD SVG 20010904//EN"
 "http://www.w3.org/TR/2001/REC-SVG-20010904/DTD/svg10.dtd">
<svg version="1.0" xmlns="http://www.w3.org/2000/svg"
 width="718.000000pt" height="718.000000pt" viewBox="0 0 718.000000 718.000000"
 preserveAspectRatio="xMidYMid meet">

<g transform="translate(0.000000,718.000000) scale(0.100000,-0.100000)"
fill="#000000" stroke="none">
<path d="M2803 7140 c0 -25 2 -35 4 -22 2 12 2 32 0 45 -2 12 -4 2 -4 -23z"/>
<path d="M3500 7170 c0 -5 -6 -10 -13 -10 -20 0 -97 -83 -97 -105 0 -15 -2
-17 -9 -7 -4 8 -11 13 -15 12 -3 -1 -34 1 -69 4 -149 14 -148 14 -134 -2 10
-13 9 -15 -5 -10 -9 4 -19 1 -22 -7 -4 -11 16 -14 97 -17 56 -2 109 0 117 4 8
3 23 2 32 -3 10 -6 17 -6 16 -2 -2 4 2 9 7 10 6 1 8 -8 6 -20 -3 -22 -3 -22
19 -2 l22 20 -21 9 c-12 5 -21 14 -21 21 0 19 62 73 110 94 l45 21 -32 0 c-18
0 -33 -4 -33 -10z"/>
<path d="M3647 7143 c9 -22 17 -72 18 -118 3 -71 0 -82 -18 -96 -18 -15 -25
-15 -64 -2 -23 8 -46 19 -49 24 -3 6 -14 0 -25 -12 -10 -12 -19 -17 -19 -10 0
8 -5 9 -19 1 -29 -15 -94 -21 -102 -9 -8 14 -113 -23 -118 -42 -2 -8 -4 -21
-4 -29 0 -8 -6 -24 -14 -35 l-15 -20 6 20 c18 67 18 75 3 75 -9 0 -20 -6 -24
-14 -4 -8 -15 -14 -23 -14 -37 2 -50 -3 -50 -21 0 -20 -25 -36 -49 -32 -13 2
-13 0 -2 -13 14 -17 12 -18 -29 -20 -15 -1 -29 -10 -37 -26 -18 -36 -38 -32
-37 7 2 28 0 30 -12 18 -8 -7 -14 -18 -14 -24 0 -20 -37 -11 -48 12 -6 12 -11
16 -11 10 -2 -37 -61 17 -61 55 0 15 -5 22 -12 19 -7 -2 -29 -10 -49 -17 -35
-13 -36 -13 -31 -61 4 -44 1 -52 -27 -85 -19 -21 -30 -43 -27 -51 3 -8 6 -21
6 -28 0 -8 10 -15 22 -17 16 -2 28 -20 49 -70 26 -63 25 -89 -2 -72 -6 3 -15
0 -20 -7 -6 -9 -12 -10 -16 -4 -11 13 -33 17 -33 6 0 -5 -10 -13 -22 -17 -12
-3 -30 -16 -39 -28 -14 -16 -20 -18 -30 -9 -8 8 -19 9 -36 2 -13 -5 -56 -12
-94 -15 -42 -4 -77 -13 -86 -22 -12 -13 -16 -13 -23 -2 -7 12 -19 10 -62 -10
-91 -42 -129 -67 -204 -129 -39 -34 -77 -61 -83 -61 -6 0 -11 -4 -11 -8 0 -5
-10 -14 -22 -21 -13 -7 -39 -33 -58 -59 -19 -25 -43 -54 -52 -64 -10 -10 -18
-22 -18 -27 0 -5 29 -24 65 -42 36 -19 65 -37 65 -41 0 -12 -28 -10 -35 2 -4
6 -29 22 -57 36 l-50 25 -33 -22 c-18 -13 -43 -44 -54 -69 -25 -53 -39 -71
-68 -87 -16 -9 -23 -9 -25 -1 -3 8 -11 9 -24 3 -10 -4 -25 -7 -33 -6 -9 2 -12
-3 -8 -13 4 -9 -3 -25 -17 -39 -13 -13 -29 -41 -35 -63 -7 -21 -18 -52 -25
-69 -7 -16 -19 -64 -26 -105 -7 -41 -17 -79 -22 -84 -4 -6 -8 -20 -8 -32 0
-13 -4 -26 -10 -29 -5 -3 -10 -16 -10 -27 0 -12 -12 -37 -26 -56 -22 -28 -24
-36 -13 -43 19 -12 42 -11 34 1 -3 6 -1 10 4 10 6 0 11 -4 11 -10 0 -14 257
-13 265 1 4 6 13 8 21 5 7 -3 20 1 28 9 9 9 16 11 18 4 2 -7 12 -7 29 0 21 7
28 18 33 53 9 58 26 108 36 108 5 0 7 8 5 18 -2 11 14 35 41 62 33 33 44 39
44 25 0 -24 6 -17 14 18 4 18 3 26 -3 22 -7 -3 -6 5 0 25 13 36 25 45 42 32
18 -14 49 -11 43 5 -11 28 6 43 46 43 37 0 40 -2 34 -24 -3 -13 -9 -31 -12
-40 -13 -33 14 -14 69 48 61 69 138 121 168 113 13 -4 19 0 19 13 0 13 11 19
45 24 25 4 49 4 55 1 5 -3 10 -2 10 4 0 5 9 13 20 16 26 8 26 25 -1 32 l-20 6
21 22 c18 19 31 23 66 20 24 -1 44 1 44 6 0 12 58 25 125 28 105 4 114 8 168
58 29 26 53 54 55 61 2 7 7 10 12 7 4 -3 10 2 14 10 3 8 1 15 -4 15 -6 0 -10
7 -10 15 0 24 17 17 24 -10 4 -14 11 -23 16 -20 6 3 10 0 10 -7 0 -10 2 -10 9
1 7 11 10 11 15 0 3 -8 3 -4 0 9 -3 14 -1 22 7 22 7 0 9 3 6 6 -4 4 -13 1 -21
-5 -11 -9 -16 -9 -21 0 -4 6 -2 15 5 19 9 5 9 9 1 14 -6 4 -11 18 -11 32 0 28
17 24 29 -8 6 -17 17 -8 80 66 41 48 76 84 79 82 2 -3 -25 -41 -62 -85 -58
-70 -65 -81 -52 -94 8 -8 13 -17 11 -19 -3 -2 -7 -21 -9 -41 -3 -20 -10 -46
-16 -57 -6 -11 -8 -25 -5 -30 3 -6 1 -10 -5 -10 -7 0 -9 12 -4 35 5 28 3 35
-9 35 -8 0 -17 -5 -19 -11 -2 -7 -10 -4 -18 7 -13 16 -13 17 0 9 12 -6 12 -5
3 5 -14 16 -46 -6 -115 -78 l-48 -49 59 -22 c70 -26 79 -26 105 -3 21 17 21
17 3 -5 -18 -21 -18 -21 35 -36 29 -9 65 -19 80 -22 35 -9 62 -39 55 -64 -4
-16 2 -21 34 -26 21 -4 41 -11 44 -15 3 -5 19 -4 36 2 31 11 79 -1 79 -20 0
-18 53 1 58 20 4 15 11 19 34 16 24 -4 28 -1 26 16 -2 15 7 23 42 37 25 9 54
20 64 24 14 6 17 5 12 -4 -4 -7 9 -3 30 8 20 11 41 18 45 15 5 -2 38 9 74 25
36 16 65 27 65 23 0 -4 4 -1 9 7 7 11 -1 23 -29 45 -107 87 -201 166 -252 214
l-56 53 -39 -19 c-21 -11 -82 -50 -136 -86 -55 -36 -106 -66 -115 -66 -10 0 7
13 35 29 29 16 74 45 100 64 27 19 69 46 95 61 l47 27 -15 34 c-20 48 -18 61
17 116 31 46 35 49 148 89 255 91 566 131 781 100 36 -5 88 -12 115 -15 48 -7
126 -27 173 -46 25 -10 25 -9 13 24 -8 21 -22 28 -79 41 -37 8 -122 18 -188
22 -65 3 -171 10 -234 14 -104 7 -96 7 83 6 108 0 197 2 197 5 0 3 -23 16 -51
28 -27 13 -48 25 -46 27 2 3 18 9 36 14 22 6 31 5 31 -3 0 -8 3 -8 9 1 4 7 12
12 17 11 5 -1 11 -1 14 0 3 1 32 4 65 6 86 6 88 7 104 19 12 9 13 8 6 -3 -6
-11 -2 -13 17 -9 18 3 27 -1 35 -19 9 -18 8 -23 -3 -23 -8 0 -14 -4 -14 -10 0
-5 -7 -7 -15 -4 -19 8 -18 -2 3 -45 11 -23 25 -35 42 -38 14 -2 26 -8 28 -13
2 -5 10 -6 18 -3 8 3 14 0 14 -6 0 -15 18 -14 23 2 2 6 3 4 2 -5 -2 -10 6 -20
19 -24 11 -4 37 -17 56 -30 44 -30 53 -30 70 1 9 16 19 24 29 20 8 -3 -2 10
-22 28 -28 27 -42 33 -63 29 -19 -3 -25 -1 -20 7 4 6 14 11 23 11 9 0 13 3 9
7 -4 4 -27 6 -51 4 -85 -5 -46 22 78 54 64 16 151 21 185 11 36 -12 89 2 95
24 6 25 40 16 57 -14 6 -12 38 -35 71 -50 33 -15 57 -31 54 -37 -4 -5 -1 -9 4
-9 6 0 11 -4 11 -10 0 -5 -6 -10 -14 -10 -20 0 -28 -44 -14 -74 12 -27 28 -35
28 -13 0 6 5 4 11 -5 14 -25 34 -22 46 5 14 30 6 52 -13 36 -8 -7 -17 -9 -21
-5 -3 3 -1 6 6 6 7 0 9 5 6 10 -3 6 1 10 11 10 14 0 14 3 4 15 -11 13 -9 20 9
38 26 29 26 32 0 34 -29 3 -32 8 -19 33 9 18 14 20 20 9 5 -7 6 -17 4 -21 -3
-4 0 -8 6 -8 7 0 14 9 17 20 3 12 14 20 27 21 17 1 17 2 4 6 -19 5 -22 12 -12
37 3 8 12 12 20 9 7 -3 17 2 20 11 3 9 13 16 22 16 10 0 5 9 -16 26 -31 26
-35 48 -7 37 10 -3 15 1 16 13 0 13 2 15 6 5 4 -9 10 -2 19 19 10 23 11 37 4
45 -7 9 -6 16 4 24 8 6 16 24 18 40 4 26 2 28 -29 25 -20 -1 -33 3 -33 10 0 7
-16 25 -35 40 -19 16 -35 33 -34 40 0 7 2 7 6 -1 2 -7 12 -13 21 -13 15 1 16
2 1 13 -9 7 -18 19 -22 27 -4 12 -6 11 -6 -3 -1 -11 -5 -15 -13 -11 -8 5 -9 2
-5 -10 5 -14 3 -17 -8 -12 -9 3 -15 0 -15 -9 0 -9 -6 -12 -15 -9 -11 5 -13 2
-8 -12 4 -12 3 -15 -5 -10 -16 10 -15 31 2 48 10 10 10 20 3 38 -9 23 -11 21
-18 -25 -5 -27 -7 -56 -4 -63 2 -7 -4 -26 -13 -42 -17 -28 -19 -28 -37 -12
-10 9 -15 12 -11 5 7 -13 -3 -43 -15 -43 -5 0 -6 13 -3 29 4 20 2 30 -10 34
-9 4 -16 2 -16 -2 0 -5 6 -11 13 -14 9 -3 7 -13 -6 -38 -17 -30 -17 -34 -3
-45 21 -15 20 -24 -1 -25 -10 0 -13 -3 -6 -5 8 -4 9 -14 3 -34 -7 -23 -4 -35
11 -55 11 -13 23 -41 26 -62 6 -33 4 -36 -13 -28 -10 4 -39 15 -63 24 -25 9
-46 22 -49 29 -2 8 2 10 14 5 12 -4 15 -3 10 5 -4 7 -14 12 -23 12 -11 0 -14
7 -11 25 3 13 1 22 -3 19 -5 -3 -9 1 -9 8 0 8 -10 20 -21 28 -12 8 -27 21 -35
28 -20 19 -26 14 -13 -10 11 -21 11 -22 -4 -9 -10 7 -17 19 -17 26 0 13 -45
30 -69 26 -8 -1 -10 2 -6 9 5 9 1 10 -13 6 -12 -4 -23 -2 -28 5 -5 8 -3 9 6 4
9 -5 11 -4 6 3 -4 7 -16 12 -27 12 -10 0 -19 4 -19 9 0 5 -27 15 -60 22 -34 7
-70 22 -81 32 -10 10 -23 16 -27 13 -4 -2 -41 4 -82 15 -41 10 -99 21 -129 24
-29 3 -72 10 -95 15 -55 13 -133 13 -141 0 -4 -6 -16 -8 -28 -4 -25 7 -19 0
34 -38 20 -15 62 -51 94 -80 32 -29 74 -58 93 -63 39 -11 61 -42 23 -32 -26 7
-27 -4 -1 -28 15 -14 20 -15 20 -4 0 11 2 12 9 1 4 -8 17 -13 27 -12 36 4 44
0 44 -21 0 -12 8 -23 20 -26 34 -9 22 -23 -20 -23 -23 0 -40 -5 -40 -11 0 -8
-4 -8 -15 1 -17 14 -176 6 -308 -16 -45 -7 -137 4 -137 17 0 6 11 21 24 34 31
31 89 42 124 24 15 -7 30 -15 35 -17 4 -2 7 8 7 22 0 22 5 26 33 27 17 1 40 0
51 -1 13 -1 16 2 10 12 -6 10 -4 10 9 -1 10 -8 20 -11 24 -8 3 4 12 2 18 -3
14 -12 48 -2 39 11 -3 5 -10 7 -15 3 -5 -3 -8 0 -7 7 2 7 -7 18 -20 24 -12 5
-20 15 -18 21 8 22 -16 35 -35 18 -26 -23 -106 -25 -135 -2 -45 36 -37 38 111
23 l40 -3 -35 30 c-97 84 -147 115 -181 111 -19 -2 -77 -5 -129 -7 -52 -2
-106 -9 -120 -14 -21 -9 -16 -10 25 -6 l50 5 -48 -26 c-27 -14 -62 -28 -78
-30 -17 -2 -37 -9 -45 -16 -9 -7 -14 -8 -14 -1 0 6 18 21 40 33 69 39 35 32
-39 -8 -64 -34 -73 -36 -84 -22 -7 8 -20 18 -30 22 -13 5 -16 13 -11 31 7 30
-14 46 -31 23 -7 -10 -17 -17 -23 -17 -17 0 -54 72 -66 130 -8 38 -16 56 -28
58 -16 3 -17 1 -1 -35z m1768 -253 c3 -5 1 -10 -4 -10 -6 0 -11 5 -11 10 0 6
2 10 4 10 3 0 8 -4 11 -10z m-1125 -20 c0 -5 -4 -10 -10 -10 -5 0 -10 -9 -10
-19 0 -11 -9 -23 -22 -27 -12 -3 -44 -20 -71 -37 -41 -25 -53 -28 -68 -19 -10
7 -26 12 -34 12 -8 0 -15 5 -15 10 0 6 -8 10 -17 10 -28 0 37 49 67 50 14 1
47 9 74 19 58 20 106 25 106 11z m1140 -27 c-11 -17 -11 -17 -6 0 3 10 6 24 7
30 0 9 2 9 5 0 3 -7 0 -20 -6 -30z m-635 -17 c61 -19 136 -42 168 -52 65 -19
83 -39 61 -69 -14 -18 -14 -18 -14 3 0 24 -19 28 -66 13 -24 -8 -87 -19 -117
-21 -5 0 -5 -6 -1 -12 3 -7 -5 1 -20 17 -20 23 -25 26 -26 13 0 -11 -7 -18
-17 -17 -13 0 -14 2 -4 6 9 4 0 17 -30 44 -35 30 -41 40 -30 48 11 7 4 14 -27
30 -23 12 -42 24 -42 26 0 13 66 2 165 -29z m255 -6 c23 -46 24 -50 8 -50 -6
0 -8 3 -5 7 4 3 0 11 -8 17 -14 11 -32 66 -21 66 3 0 15 -18 26 -40z m73 16
c3 3 4 -1 3 -10 -1 -8 -5 -18 -9 -21 -4 -3 -5 -2 -2 2 3 3 -3 16 -12 27 -14
15 -14 18 -2 8 9 -6 18 -9 22 -6z m-37 -15 c-4 -5 -1 -12 4 -14 6 -3 5 -4 -2
-3 -15 3 -23 26 -8 26 6 0 9 -4 6 -9z m374 -10 c0 -17 -18 -21 -24 -6 -3 9 0
15 9 15 8 0 15 -4 15 -9z m-1450 -21 c0 -5 -4 -10 -10 -10 -5 0 -10 5 -10 10
0 6 5 10 10 10 6 0 10 -4 10 -10z m-913 -86 c9 4 26 0 38 -8 20 -13 27 -11 81
15 61 30 165 55 190 45 19 -7 18 -46 -2 -46 -8 0 -12 -5 -9 -11 13 -20 -37
-43 -100 -44 -43 -1 -76 -10 -117 -30 -53 -26 -107 -70 -97 -79 2 -2 43 6 92
19 81 21 107 20 92 -5 -3 -5 -14 -10 -23 -10 -16 -1 -16 -2 1 -14 21 -16 23
-48 3 -40 -8 3 -12 12 -9 20 3 8 1 14 -5 14 -5 0 -13 -7 -16 -16 -3 -8 -10
-13 -15 -10 -5 3 -21 -4 -35 -15 -15 -12 -28 -20 -30 -18 -1 2 -7 17 -14 33
-17 38 -48 30 -101 -27 -37 -39 -39 -44 -25 -62 33 -46 74 -136 74 -162 l-1
-28 -15 28 c-19 35 -38 31 -42 -9 l-4 -29 -12 30 c-9 21 -10 37 -3 52 8 18 6
27 -6 41 -10 10 -17 26 -17 36 0 29 -29 30 -58 3 -48 -45 -261 -154 -275 -141
-2 2 -36 0 -76 -6 -39 -5 -147 -15 -239 -20 -92 -6 -183 -13 -202 -16 -26 -4
-31 -2 -19 5 16 10 158 26 319 36 219 13 353 55 477 150 l44 33 -23 17 c-23
17 -23 17 13 12 32 -5 41 -1 68 27 38 39 39 48 4 41 l-28 -5 30 14 c17 9 35
15 41 16 7 0 19 15 27 33 9 18 25 41 37 52 23 21 26 53 5 61 -8 3 -32 -5 -55
-17 -32 -18 -44 -33 -58 -71 -16 -47 -40 -70 -26 -25 17 57 35 87 63 108 22
16 31 32 33 53 l1 31 4 -33 c3 -26 8 -32 20 -28z m2328 -104 c3 -5 1 -10 -4
-10 -6 0 -11 5 -11 10 0 6 2 10 4 10 3 0 8 -4 11 -10z m-1455 -18 c0 -4 -16
-8 -35 -8 -19 0 -35 4 -35 8 0 4 16 8 35 8 19 0 35 -4 35 -8z m-457 -9 c-7 -2
-19 -2 -25 0 -7 3 -2 5 12 5 14 0 19 -2 13 -5z m1337 -23 c0 -5 -4 -10 -10
-10 -5 0 -10 5 -10 10 0 6 5 10 10 10 6 0 10 -4 10 -10z m-2361 -269 c-15 -5
-22 6 -14 19 6 9 10 9 16 -1 5 -8 4 -15 -2 -18z m666 -11 c3 -5 1 -10 -4 -10
-6 0 -11 5 -11 10 0 6 2 10 4 10 3 0 8 -4 11 -10z m-138 -92 c-3 -8 -6 -5 -6
6 -1 11 2 17 5 13 3 -3 4 -12 1 -19z"/>
<path d="M4752 6758 c2 -6 10 -14 16 -16 7 -2 10 2 6 12 -7 18 -28 22 -22 4z"/>
<path d="M5550 7175 c-1 -5 -1 -20 0 -33 1 -13 -4 -31 -11 -40 -12 -16 -12
-16 5 -1 12 11 16 26 13 50 -2 19 -5 30 -7 24z"/>
<path d="M4610 7120 c6 -11 13 -20 16 -20 2 0 0 9 -6 20 -6 11 -13 20 -16 20
-2 0 0 -9 6 -20z"/>
<path d="M5030 7121 c0 -5 5 -13 10 -16 6 -3 10 -2 10 4 0 5 -4 13 -10 16 -5
3 -10 2 -10 -4z"/>
<path d="M5636 7110 c-18 -18 -18 -19 1 -17 11 0 20 9 20 19 2 22 3 22 -21 -2z"/>
<path d="M4480 7112 c0 -5 7 -15 15 -22 8 -7 15 -8 15 -2 0 5 -7 15 -15 22 -8
7 -15 8 -15 2z"/>
<path d="M5776 7077 c-11 -8 -17 -20 -14 -27 2 -8 10 -3 21 14 20 30 19 32 -7
13z"/>
<path d="M2917 7066 c-20 -8 -53 -26 -72 -40 -33 -26 -35 -26 -35 -7 0 12 -5
21 -11 21 -7 0 -9 -10 -5 -24 3 -14 2 -27 -3 -30 -12 -8 -55 -135 -48 -142 3
-3 20 1 39 9 33 14 35 17 41 77 9 100 44 121 185 111 78 -6 84 -5 98 16 l14
23 -82 0 c-46 -1 -100 -7 -121 -14z m173 -8 c0 -11 -41 -10 -60 2 -11 7 -5 9
23 8 20 -1 37 -5 37 -10z"/>
<path d="M5870 7074 c0 -5 -16 -18 -35 -28 -50 -27 -65 -49 -18 -26 43 20 70
47 59 57 -3 3 -6 2 -6 -3z"/>
<path d="M5280 7036 c0 -2 7 -9 15 -16 13 -11 14 -10 9 4 -5 14 -24 23 -24 12z"/>
<path d="M5360 6989 c0 -5 5 -7 10 -4 6 3 10 8 10 11 0 2 -4 4 -10 4 -5 0 -10
-5 -10 -11z"/>
<path d="M5750 6985 c-9 -10 -9 -15 -1 -15 6 0 11 5 11 11 0 5 5 7 12 3 7 -4
8 -3 4 4 -9 15 -11 15 -26 -3z"/>
<path d="M5385 6981 c-10 -9 -5 -19 12 -25 10 -4 14 -4 10 0 -4 4 0 12 9 18
13 10 12 12 -6 12 -11 0 -23 -2 -25 -5z"/>
<path d="M5205 6965 c4 -11 10 -28 12 -37 3 -10 9 -18 14 -18 5 0 3 12 -3 28
-14 33 -35 57 -23 27z"/>
<path d="M5670 6809 c-7 -11 -10 -23 -7 -25 2 -2 9 7 15 21 14 30 7 33 -8 4z"/>
<path d="M5315 6799 c5 -24 13 -35 20 -28 7 7 -6 49 -16 49 -4 0 -6 -10 -4
-21z"/>
<path d="M5610 6760 c-13 -8 -12 -10 3 -10 9 0 17 5 17 10 0 12 -1 12 -20 0z"/>
<path d="M4680 6602 c0 -7 -4 -11 -9 -7 -5 3 -12 1 -16 -5 -3 -5 -16 -10 -28
-10 -34 0 -7 -19 38 -26 22 -3 43 -8 47 -11 10 -6 -2 27 -19 52 -7 11 -13 14
-13 7z"/>
<path d="M5000 6580 c0 -5 -8 -11 -17 -13 -12 -3 -8 -5 9 -6 30 -1 46 14 23
23 -8 3 -15 1 -15 -4z"/>
<path d="M4035 6504 c-134 -20 -302 -62 -362 -90 -30 -13 -56 -24 -59 -24 -3
0 -25 -15 -49 -32 -47 -35 -63 -74 -51 -125 7 -27 114 -138 186 -191 19 -15
53 -41 74 -59 22 -18 43 -33 48 -33 4 0 26 -13 49 -29 40 -29 40 -29 77 -13
50 23 134 73 151 90 13 13 17 9 28 -24 7 -21 9 -40 4 -43 -11 -7 -25 -51 -16
-51 10 0 35 28 35 39 0 6 4 11 9 11 5 0 9 -14 9 -30 -1 -46 19 -61 41 -31 19
25 44 21 34 -6 -4 -10 -2 -14 7 -11 8 2 18 17 23 34 13 38 12 37 36 24 12 -6
21 -8 21 -5 0 10 -68 70 -99 87 -33 18 -36 25 -22 47 7 10 13 11 30 1 12 -6
41 -14 64 -18 38 -7 42 -10 45 -39 3 -26 13 -38 55 -66 29 -19 79 -61 113 -93
33 -33 75 -71 92 -86 18 -15 32 -36 32 -48 l0 -22 -21 23 -21 24 20 -30 c11
-16 27 -47 36 -68 16 -40 86 -131 94 -123 2 3 -11 27 -31 55 -20 27 -38 64
-41 82 l-5 34 36 -40 c19 -22 53 -59 74 -82 37 -40 50 -61 30 -48 -5 3 -13 0
-17 -7 -4 -7 -4 -10 1 -6 4 4 13 1 19 -7 8 -11 39 -17 110 -22 l99 -6 -7 39
c-17 88 -67 291 -80 320 -8 16 -40 52 -71 80 -32 27 -82 72 -111 100 -30 28
-54 47 -54 42 0 -4 -3 -8 -7 -8 -5 0 -8 10 -8 23 -1 12 -4 34 -8 50 -4 16 -3
27 2 27 6 0 13 -16 17 -35 6 -33 8 -35 24 -20 16 14 30 11 30 -7 0 -5 -4 -7
-9 -3 -5 3 -13 0 -16 -6 -9 -13 59 -85 100 -106 17 -9 44 -31 62 -49 17 -19
34 -34 37 -34 2 0 0 14 -5 32 -5 17 -7 34 -5 36 3 2 10 -16 16 -40 23 -84 24
-85 84 -92 40 -5 60 -13 71 -29 8 -11 17 -18 21 -14 4 3 -11 30 -32 59 -21 29
-37 60 -37 69 2 17 -35 39 -65 39 -9 0 -31 16 -49 36 -26 30 -37 57 -58 148
-28 123 -83 305 -96 322 -13 16 -128 50 -234 69 -122 23 -384 27 -500 9z
m-200 -168 c-33 -13 -103 -47 -156 -75 -53 -28 -102 -51 -110 -51 -24 0 4 18
101 67 128 64 170 81 200 81 16 1 3 -8 -35 -22z m529 -125 c50 -38 114 -93
141 -122 40 -42 32 -37 -42 27 -127 109 -159 134 -171 134 -5 0 -15 7 -22 15
-26 32 7 12 94 -54z m-197 -43 c-3 -8 -6 -5 -6 6 -1 11 2 17 5 13 3 -3 4 -12
1 -19z m429 -160 l29 -33 -32 29 c-31 28 -38 36 -30 36 2 0 16 -15 33 -32z
m70 -70 l29 -33 -32 29 c-31 28 -38 36 -30 36 2 0 16 -15 33 -32z m-118 -26
c6 -18 -15 -14 -22 4 -4 10 -1 14 6 12 6 -2 14 -10 16 -16z m272 -47 c0 -8 -4
-15 -10 -15 -5 0 -10 7 -10 15 0 8 5 15 10 15 6 0 10 -7 10 -15z m-44 -272
c-7 -7 -26 7 -26 19 0 6 6 6 15 -2 9 -7 13 -15 11 -17z"/>
<path d="M4765 6488 c7 -34 23 -44 46 -30 12 8 24 11 27 8 3 -3 3 -6 -1 -6
-14 0 40 -48 72 -65 33 -17 35 -17 48 1 12 17 8 21 -53 51 -68 34 -94 40 -94
23 0 -5 -7 -7 -16 -3 -8 3 -13 11 -10 18 3 8 -1 16 -9 19 -10 3 -12 -2 -10
-16z"/>
<path d="M5010 6438 c0 -20 49 -72 59 -63 7 7 -32 74 -46 79 -8 3 -13 -3 -13
-16z"/>
<path d="M4796 6407 c3 -10 9 -15 12 -12 3 3 0 11 -7 18 -10 9 -11 8 -5 -6z"/>
<path d="M4849 6392 c-7 -35 -5 -58 5 -64 7 -5 5 -8 -6 -8 -17 0 -22 17 -21
59 1 8 -2 10 -8 4 -10 -10 16 -129 33 -151 13 -16 38 2 38 28 0 21 24 43 35
32 4 -4 5 5 3 21 -3 15 -1 30 5 34 6 3 7 1 3 -5 -5 -8 -2 -10 8 -6 22 8 20 11
-14 29 -46 24 -80 35 -81 27z"/>
<path d="M2230 6364 c0 -2 9 -8 20 -14 11 -6 20 -7 20 -2 0 6 -9 12 -20 15
-11 3 -20 3 -20 1z"/>
<path d="M5400 6315 c7 -9 15 -13 17 -11 7 7 -7 26 -19 26 -6 0 -6 -6 2 -15z"/>
<path d="M5917 6303 c-4 -3 -7 -11 -7 -17 0 -6 5 -5 12 2 6 6 9 14 7 17 -3 3
-9 2 -12 -2z"/>
<path d="M1430 6250 c0 -6 7 -10 15 -10 8 0 15 2 15 4 0 2 -7 6 -15 10 -8 3
-15 1 -15 -4z"/>
<path d="M5220 6239 c7 -11 14 -18 17 -15 8 8 -5 36 -17 36 -7 0 -7 -6 0 -21z"/>
<path d="M5604 6188 c4 -20 26 -21 26 -1 0 14 -2 15 -9 4 -6 -9 -10 -10 -14
-2 -4 8 -5 8 -3 -1z"/>
<path d="M5740 6180 c0 -13 5 -20 13 -17 6 2 12 10 12 17 0 7 -6 15 -12 18 -8
2 -13 -5 -13 -18z"/>
<path d="M4860 6179 c1 -7 11 -51 23 -96 26 -95 61 -143 106 -143 16 0 31 -6
35 -15 7 -18 68 -20 115 -4 32 11 39 23 21 34 -6 4 -8 10 -6 14 3 4 -19 13
-49 20 -29 7 -59 19 -65 26 -7 8 -16 12 -21 9 -5 -3 -9 0 -9 5 0 6 5 11 11 11
5 0 8 4 4 10 -3 5 -14 1 -25 -10 -23 -23 -49 -28 -31 -6 14 17 -11 41 -34 32
-8 -3 -15 -1 -15 5 0 16 29 22 45 9 8 -7 15 -8 15 -3 0 5 -12 20 -27 33 -16
12 -43 36 -60 53 -21 20 -33 26 -33 16z"/>
<path d="M5180 6176 c0 -9 5 -16 10 -16 6 0 10 4 10 9 0 6 -4 13 -10 16 -5 3
-10 -1 -10 -9z"/>
<path d="M5240 6160 c0 -5 5 -10 11 -10 5 0 7 5 4 10 -3 6 -8 10 -11 10 -2 0
-4 -4 -4 -10z"/>
<path d="M5090 6136 c0 -2 11 -6 25 -8 13 -3 22 -1 19 3 -5 9 -44 13 -44 5z"/>
<path d="M5652 6057 c-12 -13 -19 -26 -16 -29 3 -4 3 -16 -1 -28 -6 -18 -9
-19 -23 -8 -13 11 -15 11 -8 -2 4 -8 1 -7 -7 3 -12 15 -16 15 -26 3 -14 -17
-1 -49 26 -64 9 -6 13 -14 8 -21 -5 -9 -11 -7 -22 8 -9 14 -25 21 -46 21 -30
0 -47 14 -78 62 -8 13 -46 1 -52 -16 -3 -7 8 -27 24 -45 30 -35 30 -51 -1 -51
-10 0 -26 -9 -34 -21 -8 -12 -19 -18 -25 -14 -16 9 -13 25 4 25 21 0 19 30 -2
46 -25 19 -43 17 -44 -3 0 -14 -2 -13 -9 5 -5 12 -18 22 -29 22 -11 0 -24 8
-29 17 -6 9 -16 17 -25 19 -8 1 -31 10 -51 19 -20 10 -39 15 -43 11 -3 -3 -11
1 -17 9 -6 8 -28 16 -48 19 -30 3 -36 1 -31 -11 4 -9 14 -13 29 -10 15 3 21 0
17 -10 -3 -7 1 -13 10 -13 8 0 39 -7 68 -16 85 -26 85 -26 72 -31 -7 -3 -13
-11 -13 -19 0 -18 -58 -44 -98 -44 -15 0 -36 -6 -46 -13 -17 -12 -15 -19 28
-101 48 -90 53 -114 36 -147 -22 -39 -63 -13 -142 90 -28 36 -48 57 -45 46 3
-11 16 -63 27 -115 12 -52 29 -119 38 -147 l16 -53 116 0 c90 0 121 4 139 16
14 10 33 14 51 11 18 -4 43 2 71 16 39 20 44 26 44 57 1 19 6 46 12 60 8 18 7
27 -1 32 -8 6 -7 8 2 8 15 0 7 66 -14 117 -14 36 -1 55 16 24 5 -11 10 -24 9
-28 -2 -15 13 -53 22 -53 9 0 4 -100 -7 -152 -3 -15 -23 -43 -45 -61 l-39 -34
25 -52 c20 -40 23 -56 15 -71 -12 -22 -1 -27 18 -8 9 9 12 9 12 1 0 -23 39
-23 85 -1 40 19 47 20 55 8 14 -22 13 -11 -16 118 -35 159 -35 164 1 180 19 9
25 19 25 43 0 23 4 30 14 26 16 -6 43 19 32 30 -3 3 -6 0 -6 -7 0 -10 -3 -11
-11 -3 -16 16 -20 103 -4 103 7 0 24 9 37 20 14 10 29 16 34 12 5 -4 2 1 -6
11 -8 11 -21 16 -32 13 -16 -4 -17 -2 -7 10 9 11 7 14 -10 14 -22 0 -28 14
-10 26 6 3 14 2 18 -4 3 -5 6 9 6 33 0 41 -1 42 -22 28 -17 -11 -21 -12 -19
-1 1 7 5 19 9 26 5 6 5 17 2 22 -4 6 -1 17 5 25 20 24 6 17 -18 -8z m-25 -113
c-3 -3 -12 -4 -19 -1 -8 3 -5 6 6 6 11 1 17 -2 13 -5z m13 -63 c0 -12 -20 -25
-27 -18 -7 7 6 27 18 27 5 0 9 -4 9 -9z m-80 -57 c0 -8 -4 -12 -10 -9 -5 3
-10 13 -10 21 0 8 5 12 10 9 6 -3 10 -13 10 -21z m-105 -164 c3 -6 -1 -7 -9
-4 -18 7 -21 14 -7 14 6 0 13 -4 16 -10z"/>
<path d="M1305 6060 c3 -5 11 -10 16 -10 6 0 7 5 4 10 -3 6 -11 10 -16 10 -6
0 -7 -4 -4 -10z"/>
<path d="M5725 6030 c3 -5 8 -10 11 -10 2 0 4 5 4 10 0 6 -5 10 -11 10 -5 0
-7 -4 -4 -10z"/>
<path d="M5710 5942 c0 -11 6 -22 14 -25 10 -4 12 0 9 14 -7 27 -23 34 -23 11z"/>
<path d="M5755 5910 c-3 -5 -2 -10 4 -10 5 0 13 5 16 10 3 6 2 10 -4 10 -5 0
-13 -4 -16 -10z"/>
<path d="M1580 5900 c0 -6 7 -10 15 -10 8 0 15 2 15 4 0 2 -7 6 -15 10 -8 3
-15 1 -15 -4z"/>
<path d="M6117 5899 c-21 -12 -23 -39 -2 -39 16 0 39 36 27 44 -4 2 -15 0 -25
-5z m13 -13 c0 -3 -4 -8 -10 -11 -5 -3 -10 -1 -10 4 0 6 5 11 10 11 6 0 10 -2
10 -4z"/>
<path d="M5680 5810 c0 -5 5 -10 11 -10 5 0 7 5 4 10 -3 6 -8 10 -11 10 -2 0
-4 -4 -4 -10z"/>
<path d="M1542 5763 c-13 -3 -21 -10 -19 -16 7 -21 35 -19 47 2 6 12 7 20 3
20 -4 -1 -18 -4 -31 -6z"/>
<path d="M2710 5750 c0 -5 10 -10 23 -10 18 0 19 2 7 10 -19 13 -30 13 -30 0z"/>
<path d="M5027 5746 c-16 -12 -13 -18 33 -67 46 -49 52 -52 64 -37 7 10 11 32
8 49 -4 28 -6 30 -17 16 -12 -17 -36 -22 -48 -10 -4 3 -2 12 4 20 9 10 8 17
-1 28 -15 18 -20 18 -43 1z"/>
<path d="M5732 5748 c3 -7 13 -15 24 -17 16 -3 17 -1 5 13 -16 19 -34 21 -29
4z"/>
<path d="M5765 5710 c-9 -15 -1 -23 21 -18 15 3 16 4 1 16 -11 9 -17 10 -22 2z"/>
<path d="M1240 5675 c7 -9 15 -13 17 -11 7 7 -7 26 -19 26 -6 0 -6 -6 2 -15z"/>
<path d="M5800 5652 c0 -11 14 -34 30 -50 17 -17 30 -38 30 -46 0 -9 6 -16 14
-16 11 0 6 17 -17 62 -33 64 -57 85 -57 50z m28 -17 c-3 -3 -9 2 -12 12 -6 14
-5 15 5 6 7 -7 10 -15 7 -18z"/>
<path d="M5605 5588 c4 -18 12 -38 17 -45 5 -7 7 -21 3 -31 -3 -11 4 -56 15
-100 12 -45 23 -105 25 -134 2 -29 4 -55 5 -57 0 -2 7 2 15 9 10 8 12 17 6 29
-5 9 -6 23 -1 32 5 8 10 55 11 105 2 91 -9 134 -35 134 -21 0 -51 51 -36 60 9
6 6 11 -10 20 -21 11 -22 11 -15 -22z"/>
<path d="M6402 5603 c2 -10 10 -18 18 -18 8 0 16 8 18 18 2 12 -3 17 -18 17
-15 0 -20 -5 -18 -17z"/>
<path d="M3720 5545 c0 -21 7 -46 16 -56 16 -18 18 -18 40 4 13 12 24 29 24
38 0 21 -26 43 -44 36 -7 -3 -19 0 -25 6 -8 8 -11 1 -11 -28z m40 -15 c0 -5
-2 -10 -4 -10 -3 0 -8 5 -11 10 -3 6 -1 10 4 10 6 0 11 -4 11 -10z"/>
<path d="M4640 5531 c0 -5 7 -15 17 -22 15 -13 15 -12 4 9 -12 23 -21 28 -21
13z"/>
<path d="M5720 5520 c0 -10 5 -30 12 -44 9 -20 14 -23 25 -15 19 17 16 57 -6
69 -27 14 -31 13 -31 -10z"/>
<path d="M5904 5460 c6 -27 5 -32 -4 -20 -10 12 -11 10 -6 -10 3 -14 6 -40 6
-58 0 -18 3 -31 8 -29 4 3 6 -33 4 -79 -3 -76 -13 -105 -25 -71 -2 6 -8 -10
-12 -38 -8 -55 -47 -167 -70 -202 -16 -24 -15 -33 4 -100 7 -26 19 -44 31 -48
11 -4 32 -23 48 -42 25 -34 27 -43 26 -127 0 -68 -7 -110 -25 -166 -21 -64
-24 -93 -23 -203 0 -94 4 -131 13 -137 11 -6 11 -9 0 -13 -10 -4 -9 -6 4 -6 9
-1 17 -6 17 -12 0 -6 -7 -8 -16 -5 -14 5 -15 -10 -9 -142 4 -81 8 -149 10
-150 2 -2 14 16 26 40 12 23 33 57 46 75 33 43 38 90 16 133 -10 19 -25 35
-33 35 -17 0 -17 -11 0 250 6 99 11 207 11 240 0 32 4 93 9 133 6 41 10 169
10 286 0 208 -13 350 -42 436 -7 19 -12 38 -13 42 0 3 -4 10 -9 15 -5 4 -5 -7
-2 -27z m13 -62 c-3 -8 -6 -5 -6 6 -1 11 2 17 5 13 3 -3 4 -12 1 -19z m23 -88
c0 -5 -2 -10 -4 -10 -3 0 -8 5 -11 10 -3 6 -1 10 4 10 6 0 11 -4 11 -10z m-3
-1266 c-3 -3 -12 -4 -19 -1 -8 3 -5 6 6 6 11 1 17 -2 13 -5z m18 -24 c19 -8
19 -9 -2 -9 -12 -1 -25 4 -28 9 -7 12 2 12 30 0z m10 -50 c-3 -5 -12 -10 -18
-10 -7 0 -6 4 3 10 19 12 23 12 15 0z"/>
<path d="M4692 5448 c13 -18 41 -56 61 -84 38 -53 78 -84 57 -44 -6 11 -14 20
-19 20 -5 0 -29 32 -55 70 -26 39 -52 70 -58 70 -6 0 0 -15 14 -32z"/>
<path d="M5385 5433 c16 -57 6 -84 -22 -62 -15 12 -16 12 -8 -1 6 -11 5 -12
-4 -4 -6 6 -9 18 -5 28 5 13 9 14 20 5 17 -14 19 3 4 31 -17 31 -76 15 -137
-38 -29 -24 -53 -41 -53 -36 0 5 18 25 40 44 l41 35 -93 -3 c-70 -3 -96 -7
-105 -19 -11 -15 -13 -14 -19 1 -5 14 -20 17 -88 16 -44 0 -94 3 -109 6 -26 6
-28 4 -25 -17 1 -13 12 -28 24 -33 19 -9 54 -57 54 -76 0 -4 13 -22 29 -39 25
-27 30 -29 36 -13 6 16 7 16 19 0 16 -22 27 -23 20 -3 -4 8 -1 15 5 15 6 0 11
-7 11 -15 0 -8 9 -19 20 -25 17 -9 20 -21 20 -70 0 -33 -3 -60 -6 -60 -3 0
-15 10 -26 23 -21 24 -15 7 13 -33 13 -19 18 -54 22 -145 3 -66 11 -159 18
-207 11 -76 11 -89 -3 -105 -28 -33 -29 -42 -7 -64 19 -19 20 -25 9 -42 -10
-18 -10 -22 6 -33 44 -30 52 -50 82 -187 17 -79 38 -160 47 -181 9 -20 13 -46
10 -57 -5 -15 4 -29 34 -57 41 -37 41 -38 41 -110 0 -40 -4 -80 -9 -90 -19
-37 -42 -140 -43 -192 0 -30 7 -74 15 -97 22 -56 15 -175 -20 -350 -14 -72
-23 -139 -20 -147 4 -10 18 -16 37 -16 29 0 30 -1 30 -48 0 -53 25 -116 43
-109 7 3 11 9 10 14 -1 6 -5 39 -9 73 l-7 63 28 -5 c19 -4 33 0 46 13 18 18
18 21 3 44 -22 34 -14 123 25 270 43 160 51 200 51 248 0 38 4 45 28 56 15 8
35 17 44 22 10 5 19 9 21 9 10 0 -15 -110 -33 -144 -40 -80 10 -48 82 51 27
37 56 73 64 80 21 15 2 53 -26 53 -24 0 -25 13 -4 45 9 13 13 28 11 33 -19 29
-88 345 -106 482 -12 89 -10 102 35 266 14 53 14 66 3 89 -21 43 -42 52 -84
36 -20 -7 -38 -11 -41 -9 -11 11 25 39 56 44 77 13 110 -64 79 -182 -44 -161
-44 -164 -25 -280 24 -153 41 -234 72 -345 23 -82 29 -96 45 -92 12 4 22 22
30 59 7 30 18 59 26 65 9 8 13 8 13 0 0 -23 49 12 67 48 15 32 17 60 15 231
-3 188 -2 198 24 285 36 120 38 215 6 267 -41 65 -50 57 -44 -43 4 -82 3 -89
-14 -89 -25 0 -59 53 -75 118 -7 28 -16 52 -21 52 -5 0 -32 -13 -61 -30 -30
-16 -60 -30 -68 -30 -26 0 -68 49 -79 93 -25 94 -75 226 -113 299 -36 69 -43
77 -76 83 -20 4 -70 20 -112 37 -69 27 -80 35 -118 89 -23 32 -37 59 -31 59 5
0 10 -4 10 -8 0 -20 76 -95 119 -116 50 -26 151 -58 151 -49 0 3 -8 27 -17 54
-10 26 -14 51 -10 55 11 12 60 -29 82 -68 17 -29 24 -34 41 -27 23 8 42 29 26
29 -15 0 -55 96 -48 117 3 10 -1 28 -9 39 -8 10 -15 27 -15 37 0 9 -5 17 -11
17 -7 0 -9 -10 -4 -27z m-100 -861 c29 -32 39 -75 26 -117 -8 -27 -9 -25 -8
20 2 45 -3 56 -41 103 -23 30 -42 61 -42 70 0 10 8 4 20 -16 12 -19 32 -46 45
-60z m-155 -54 c0 -13 -23 -5 -28 10 -2 7 2 10 12 6 9 -3 16 -11 16 -16z m282
-30 c-6 -6 -15 -8 -19 -4 -4 4 -1 11 7 16 8 5 17 7 19 4 3 -2 -1 -10 -7 -16z
m33 -8 c-3 -5 -11 -10 -16 -10 -6 0 -7 5 -4 10 3 6 11 10 16 10 6 0 7 -4 4
-10z m25 -230 c0 -5 -10 -10 -22 -9 -22 0 -22 1 -3 9 11 5 21 9 23 9 1 1 2 -3
2 -9z m45 -20 c3 -5 -1 -10 -10 -10 -9 0 -13 5 -10 10 3 6 8 10 10 10 2 0 7
-4 10 -10z m-95 -144 c0 -3 -4 -8 -10 -11 -5 -3 -10 -1 -10 4 0 6 5 11 10 11
6 0 10 -2 10 -4z"/>
<path d="M5714 5410 c1 -16 6 -30 11 -30 14 0 13 52 -1 57 -7 2 -11 -9 -10
-27z"/>
<path d="M5760 5400 c0 -6 7 -13 15 -16 11 -5 12 -11 4 -25 -5 -11 -7 -24 -4
-29 3 -6 2 -10 -2 -10 -5 0 -16 -13 -26 -29 -16 -27 -16 -29 -1 -35 15 -6 15
-8 -1 -26 -17 -19 -17 -23 -1 -84 10 -36 16 -71 13 -78 -2 -7 -8 1 -12 17 -18
76 -27 96 -43 93 -17 -4 -18 -48 -2 -58 5 -3 12 -19 16 -35 4 -17 10 -32 14
-35 3 -3 13 -23 22 -45 8 -21 20 -41 25 -42 13 -5 48 77 69 159 18 67 13 165
-9 183 -6 5 -8 6 -4 1 4 -5 -2 -15 -13 -23 -11 -8 -20 -22 -20 -32 0 -22 -29
-81 -40 -81 -11 0 10 81 26 100 8 9 11 30 9 49 -3 24 1 38 13 48 16 12 16 14
-2 28 -23 17 -46 20 -46 5z"/>
<path d="M5712 5321 c-14 -45 -15 -61 -4 -61 13 0 37 55 34 78 -5 33 -17 27
-30 -17z"/>
<path d="M5548 5298 c-21 -11 -38 -24 -38 -28 0 -5 20 3 45 17 42 23 55 34 38
32 -5 0 -25 -9 -45 -21z"/>
<path d="M5350 5281 c0 -26 33 -81 49 -81 10 0 12 -3 5 -8 -8 -5 2 -34 32 -92
24 -47 44 -82 44 -78 0 15 -54 156 -77 198 -30 54 -53 81 -53 61z"/>
<path d="M5508 5245 l-76 -44 18 -48 c10 -26 23 -49 29 -51 5 -2 17 12 25 30
12 28 14 29 15 11 1 -13 -8 -32 -20 -44 l-20 -20 56 -162 c31 -88 58 -163 61
-166 2 -3 30 20 60 50 63 61 59 32 30 244 -19 133 -58 245 -86 245 -8 0 -50
-20 -92 -45z"/>
<path d="M2111 5263 c-1 -12 4 -25 9 -28 12 -7 12 2 0 30 -8 19 -9 19 -9 -2z"/>
<path d="M1605 5178 c-33 -5 -97 -9 -142 -8 -71 1 -82 -1 -87 -17 -13 -46 -28
-189 -24 -234 3 -27 1 -52 -3 -55 -10 -6 -12 -144 -3 -168 4 -11 14 -14 33
-10 25 5 25 5 -6 -16 -32 -21 -44 -50 -22 -50 5 0 7 -6 3 -12 -4 -7 5 -2 21
12 15 14 34 39 41 55 7 17 13 24 14 16 0 -8 -12 -34 -26 -58 -14 -25 -23 -51
-20 -59 3 -8 1 -14 -3 -14 -5 0 -12 6 -14 13 -9 20 -6 -26 3 -53 l8 -25 1 28
c1 15 6 27 12 27 5 0 8 -4 5 -8 -3 -5 2 -21 10 -37 8 -15 12 -37 9 -49 -5 -17
-3 -17 9 4 l15 25 1 -27 c0 -16 9 -37 19 -47 12 -12 17 -27 14 -39 -3 -11 0
-29 6 -39 9 -15 10 -13 11 15 0 17 5 32 10 32 6 0 10 -18 10 -39 0 -22 5 -42
13 -44 10 -4 10 -6 0 -6 -18 -1 -16 -31 1 -31 8 0 17 10 19 23 4 19 4 18 6 -5
1 -19 7 -28 19 -29 10 0 12 -3 5 -6 -16 -6 -17 -53 -2 -53 6 0 9 7 5 15 -3 8
-1 15 4 15 6 0 10 -12 10 -27 0 -16 5 -35 10 -43 8 -13 10 -12 10 4 0 10 -5
46 -10 80 -31 184 -50 316 -50 340 0 37 17 32 24 -8 7 -37 26 -59 42 -48 6 4
10 32 10 62 l-1 55 31 -2 c31 -3 64 20 51 34 -4 3 1 12 11 19 9 7 12 14 5 14
-17 0 -3 40 14 40 11 0 13 5 8 18 -4 9 -10 28 -13 42 -3 14 -12 30 -19 35 -13
9 -12 20 2 75 9 36 24 76 33 90 21 32 24 126 6 163 -16 30 -37 32 -149 15z
m15 -402 c0 -2 -7 -7 -16 -10 -8 -3 -12 -2 -9 4 6 10 25 14 25 6z m-50 -26
c-8 -5 -19 -10 -25 -10 -5 0 -3 5 5 10 8 5 20 10 25 10 6 0 3 -5 -5 -10z m-26
-106 c3 -8 2 -12 -4 -9 -6 3 -10 10 -10 16 0 14 7 11 14 -7z"/>
<path d="M4890 5183 c0 -23 77 -118 98 -121 32 -5 27 15 -8 33 -17 9 -44 34
-60 57 -17 22 -30 37 -30 31z"/>
<path d="M5694 5053 c7 -36 26 -155 26 -167 0 -5 9 -1 20 9 27 24 25 45 -10
121 -31 68 -45 82 -36 37z"/>
<path d="M1115 5040 c3 -5 8 -10 11 -10 2 0 4 5 4 10 0 6 -5 10 -11 10 -5 0
-7 -4 -4 -10z"/>
<path d="M1836 5007 c3 -10 9 -15 12 -12 3 3 0 11 -7 18 -10 9 -11 8 -5 -6z"/>
<path d="M5752 4874 c-25 -38 -23 -70 4 -60 9 3 22 6 30 6 16 0 19 31 5 46 -5
5 -11 17 -13 26 -2 13 -9 9 -26 -18z"/>
<path d="M4869 4851 c-43 -35 -19 -101 36 -101 24 0 55 28 55 50 0 10 3 10 17
-1 10 -8 7 -1 -7 18 -32 44 -72 57 -101 34z m66 -21 c3 -5 0 -10 -7 -11 -10 0
-10 -2 0 -6 20 -8 14 -29 -13 -41 -21 -10 -23 -9 -18 5 5 12 2 15 -10 10 -27
-10 -32 15 -7 35 25 20 46 23 55 8z"/>
<path d="M4498 4843 c7 -3 16 -2 19 1 4 3 -2 6 -13 5 -11 0 -14 -3 -6 -6z"/>
<path d="M5546 4815 c4 -16 11 -34 16 -40 7 -7 8 -1 3 15 -12 40 -26 59 -19
25z"/>
<path d="M5691 4807 c-29 -32 -26 -39 9 -19 31 17 36 27 21 36 -4 3 -18 -5
-30 -17z"/>
<path d="M5754 4792 c-21 -14 44 -171 65 -158 8 6 6 105 -4 144 -5 22 -37 30
-61 14z"/>
<path d="M3635 4690 c-3 -5 -2 -10 4 -10 5 0 13 5 16 10 3 6 2 10 -4 10 -5 0
-13 -4 -16 -10z"/>
<path d="M4970 4550 c-9 -6 -10 -10 -3 -10 6 0 15 5 18 10 8 12 4 12 -15 0z"/>
<path d="M6234 4550 c-70 -28 -3 -119 105 -141 46 -10 61 -18 74 -41 9 -16 25
-28 36 -28 11 0 26 -3 35 -6 35 -14 13 13 -33 38 -39 22 -50 35 -55 60 -9 47
-42 97 -71 108 -44 17 -69 20 -91 10z m26 -24 c0 -2 -8 -10 -17 -17 -16 -13
-17 -12 -4 4 13 16 21 21 21 13z m88 -42 c29 -26 44 -64 23 -64 -23 0 -70 23
-65 32 4 5 -4 4 -17 -3 -22 -11 -23 -11 -10 4 7 10 11 17 8 17 -3 0 -14 3 -24
6 -15 5 -15 4 -3 -5 8 -6 10 -11 4 -11 -6 0 -17 7 -24 15 -10 12 -9 15 4 15 9
0 19 7 22 15 9 21 44 12 82 -21z"/>
<path d="M6292 4501 c-11 -7 -11 -9 0 -14 9 -3 15 1 15 9 0 8 -1 14 -1 14 -1
0 -7 -4 -14 -9z"/>
<path d="M1097 4353 c-12 -11 -8 -40 8 -53 18 -15 45 2 45 30 0 23 -37 39 -53
23z"/>
<path d="M1380 4340 c0 -11 4 -20 9 -20 5 0 11 -9 14 -20 3 -12 1 -18 -5 -14
-7 4 -7 -2 -3 -17 7 -20 6 -22 -7 -12 -13 11 -13 3 1 -60 8 -39 20 -75 25 -80
17 -12 51 -3 51 13 1 8 6 14 11 13 18 -3 4 44 -18 64 -11 10 -22 17 -24 16 -2
-2 -11 -3 -20 -3 -14 0 -14 2 1 16 17 17 15 41 -7 97 -12 32 -28 36 -28 7z
m85 -160 c3 -5 1 -10 -4 -10 -6 0 -11 5 -11 10 0 6 2 10 4 10 3 0 8 -4 11 -10z"/>
<path d="M2050 4287 c-22 -31 -37 -43 -49 -40 -11 3 -21 -2 -25 -13 -5 -14 -4
-15 9 -4 9 7 18 10 22 7 6 -6 -31 -46 -59 -64 -27 -17 -90 -105 -99 -138 -6
-19 -18 -36 -29 -40 -24 -8 -26 -30 -5 -39 12 -4 14 -14 10 -40 -6 -32 -5 -34
22 -34 37 0 63 15 63 36 0 9 14 25 31 35 17 9 33 27 36 38 5 18 11 20 38 16
18 -3 50 -2 71 3 30 7 40 5 49 -7 7 -9 17 -13 23 -9 7 4 12 1 12 -9 0 -14 3
-14 24 2 13 10 20 19 15 21 -5 2 -2 10 6 19 13 13 23 13 66 3 35 -9 47 -15 38
-21 -8 -5 -22 -9 -32 -9 -16 0 -17 -2 -3 -15 8 -8 21 -15 28 -15 10 0 9 -3 -2
-11 -11 -8 -12 -12 -2 -16 14 -5 37 -44 25 -41 -15 3 -83 -14 -89 -23 -3 -5
-21 -16 -41 -24 -24 -10 -33 -20 -29 -30 3 -8 0 -14 -7 -12 -7 1 -11 -4 -9
-10 1 -7 -5 -13 -14 -13 -8 0 -13 -4 -10 -9 6 -10 -24 -25 -32 -16 -3 3 0 5 6
5 7 0 12 7 12 15 0 9 -9 15 -21 15 -17 0 -20 -5 -17 -25 3 -13 2 -23 -1 -21
-3 2 -35 -11 -71 -28 -55 -27 -66 -36 -71 -63 -8 -40 -5 -43 43 -43 29 0 45
-7 65 -29 24 -26 29 -27 64 -18 29 7 48 6 76 -6 21 -8 61 -18 88 -22 28 -4 52
-11 55 -15 3 -5 66 -4 140 1 74 5 165 9 202 9 36 -1 69 4 73 9 3 6 -1 11 -10
11 -9 0 -13 5 -9 11 3 6 17 9 30 6 24 -4 34 15 14 28 -15 9 -12 25 6 25 9 0
12 -5 8 -12 -4 -7 -3 -8 4 -4 6 4 8 14 5 24 -6 15 -5 15 11 3 9 -8 15 -19 12
-26 -2 -6 2 -12 10 -12 7 0 11 4 9 8 -3 4 2 9 10 13 10 3 15 -1 16 -12 0 -10
3 -12 6 -4 2 6 16 12 29 12 15 0 24 6 24 15 0 8 -7 15 -15 15 -8 0 -15 4 -15
10 0 5 6 7 13 5 6 -3 18 4 25 15 11 18 9 26 -15 63 -16 23 -38 46 -51 52 -12
5 -22 16 -22 23 0 7 -8 16 -17 19 -10 4 -28 17 -40 30 -24 25 -53 31 -53 11 0
-7 -12 0 -25 15 -14 16 -23 33 -19 38 3 6 -2 17 -12 24 -18 14 -18 14 3 15 12
0 35 11 51 25 25 21 29 30 23 53 -6 19 -14 27 -30 26 -14 0 -32 12 -48 33 -15
19 -39 41 -56 49 -26 14 -28 19 -23 49 5 27 2 39 -14 55 -11 11 -24 20 -29 20
-15 0 -41 -30 -41 -46 0 -9 -5 -12 -12 -8 -6 4 -54 9 -107 11 -55 2 -98 8
-102 14 -5 8 -8 8 -10 0 -3 -7 -14 -8 -34 -2 -27 8 -19 16 13 12 6 -1 12 3 12
10 0 11 -5 10 -69 -7 -17 -5 -22 -4 -17 4 5 8 -2 12 -20 12 -16 0 -39 11 -55
26 l-27 26 -32 -45z m105 -35 c-3 -3 -11 0 -18 7 -9 10 -8 11 6 5 10 -3 15 -9
12 -12z m85 -186 c0 -3 -4 -8 -10 -11 -5 -3 -10 -1 -10 4 0 6 5 11 10 11 6 0
10 -2 10 -4z m223 -115 c-2 -10 -16 -24 -29 -30 -37 -16 -40 -13 -10 10 14 11
24 25 21 30 -4 5 0 9 8 9 10 0 13 -7 10 -19z m-119 -130 c15 -6 4 -11 -45 -21
-58 -12 -61 -14 -34 -21 25 -5 26 -7 7 -8 -13 0 -20 -5 -17 -11 3 -5 2 -10 -4
-10 -5 0 -17 -3 -27 -7 -11 -4 -15 -3 -10 5 5 8 -1 8 -23 1 -20 -7 -28 -15
-24 -25 3 -8 0 -14 -7 -14 -6 0 -9 4 -5 9 3 5 1 12 -5 16 -6 4 -10 -6 -10 -24
0 -16 -6 -33 -12 -37 -23 -14 -44 -11 -45 8 -1 11 3 16 9 12 7 -5 9 -1 5 9 -8
20 27 47 63 48 21 0 22 2 6 8 -15 6 -11 10 25 26 99 43 122 48 153 36z m217
-78 c13 -15 12 -15 -8 -4 -24 12 -29 21 -14 21 5 0 15 -7 22 -17z m-232 -40
c-2 -59 14 -100 43 -113 17 -8 2 -9 -52 -5 -134 11 -143 20 -91 92 22 30 77
71 99 73 1 0 1 -21 1 -47z m350 -9 c7 5 9 1 5 -9 -4 -10 3 -26 16 -41 13 -13
19 -24 13 -24 -6 0 -26 -3 -44 -7 -30 -6 -32 -4 -21 9 9 12 10 23 2 43 -11 29
-3 56 10 35 4 -7 13 -10 19 -6z m-248 -24 c5 0 9 -8 9 -18 0 -20 -53 -47 -75
-38 -37 14 5 73 43 60 8 -2 18 -4 23 -4z m323 -15 c-4 -8 -11 -12 -17 -8 -8 5
-7 8 1 11 7 2 9 9 6 14 -4 7 -2 8 4 4 6 -4 9 -13 6 -21z m-231 -72 c-13 -2
-35 -2 -50 0 -16 2 -5 4 22 4 28 0 40 -2 28 -4z"/>
<path d="M3915 4280 c-12 -4 -27 -15 -34 -24 -11 -13 -34 -16 -110 -17 -53 0
-114 -3 -136 -7 -38 -7 -40 -10 -37 -40 2 -26 -2 -32 -18 -32 -11 0 -20 -4
-20 -10 0 -5 -8 -10 -17 -11 -11 0 -13 -3 -5 -6 19 -7 15 -60 -5 -67 -15 -6
-15 -8 -3 -16 21 -14 46 -12 62 3 7 8 30 17 50 21 28 5 37 3 42 -10 3 -9 4
-20 1 -24 -12 -19 45 -33 152 -38 94 -4 113 -2 111 9 -2 11 13 15 66 17 38 1
75 7 81 12 7 6 36 8 66 5 30 -3 84 -7 120 -9 37 -2 72 -6 78 -10 6 -4 11 -3
11 1 0 16 58 13 74 -3 29 -28 12 -53 -23 -34 -14 7 -22 7 -27 -2 -4 -6 -3 -8
3 -5 6 4 18 -2 28 -13 10 -11 27 -20 37 -20 17 0 19 6 15 40 -5 43 -3 44 56
40 15 -1 27 3 27 9 0 6 -4 11 -10 11 -5 0 -10 5 -10 10 0 11 5 11 137 -21 88
-21 143 -20 143 1 0 6 -17 9 -37 8 -65 -4 -257 46 -285 74 -10 10 -27 18 -38
18 -11 0 -28 9 -37 20 -13 14 -19 16 -25 7 -5 -9 -10 -8 -20 5 -9 10 -33 17
-71 20 -34 3 -62 10 -67 18 -5 8 -24 14 -43 15 -18 0 -42 8 -51 18 -21 21 -35
22 -42 2 -5 -13 -10 -12 -30 4 -14 11 -44 22 -67 26 -23 4 -49 8 -57 10 -8 2
-24 0 -35 -5z m83 -32 c8 -10 -3 -12 -51 -9 -47 3 -56 6 -37 12 40 11 77 10
88 -3z m67 -8 c3 -5 1 -10 -4 -10 -6 0 -11 5 -11 10 0 6 2 10 4 10 3 0 8 -4
11 -10z m-345 -130 c20 -6 14 -8 -27 -9 -29 -1 -53 3 -53 9 0 12 44 12 80 0z"/>
<path d="M4344 4235 c11 -8 22 -12 25 -9 6 6 -19 24 -34 24 -5 -1 -1 -7 9 -15z"/>
<path d="M1496 4169 c27 -53 42 -60 29 -12 -5 15 -7 34 -6 42 1 7 -2 10 -8 6
-6 -3 -11 -1 -11 4 0 6 -7 11 -15 11 -12 0 -10 -10 11 -51z"/>
<path d="M1924 4197 c-33 -34 -58 -77 -49 -85 4 -4 10 -1 12 6 3 7 10 18 17
25 7 7 11 18 8 26 -3 8 0 11 7 7 6 -4 11 -2 11 3 0 6 7 11 15 11 8 0 15 7 15
15 0 20 -11 18 -36 -8z"/>
<path d="M1490 4118 c0 -9 5 -20 10 -23 13 -8 13 5 0 25 -8 13 -10 13 -10 -2z"/>
<path d="M3125 4121 c-8 -15 3 -31 21 -31 9 0 14 7 12 17 -4 20 -24 28 -33 14z"/>
<path d="M1601 4111 c-7 -5 -10 -14 -6 -20 4 -7 2 -18 -4 -25 -14 -17 -11 -37
9 -53 26 -21 30 -15 24 44 -6 66 -5 65 -23 54z"/>
<path d="M1495 4070 c3 -5 8 -10 11 -10 2 0 4 5 4 10 0 6 -5 10 -11 10 -5 0
-7 -4 -4 -10z"/>
<path d="M1418 4000 c-17 -13 -20 -22 -12 -30 14 -14 64 4 64 24 0 23 -27 26
-52 6z"/>
<path d="M1502 3995 c0 -16 2 -22 5 -12 2 9 2 23 0 30 -3 6 -5 -1 -5 -18z"/>
<path d="M1616 3975 c4 -8 8 -15 10 -15 2 0 4 7 4 15 0 8 -4 15 -10 15 -5 0
-7 -7 -4 -15z"/>
<path d="M5201 3974 c0 -11 3 -14 6 -6 3 7 2 16 -1 19 -3 4 -6 -2 -5 -13z"/>
<path d="M2906 3965 c4 -10 -2 -18 -17 -24 l-24 -8 23 -7 c74 -21 69 -21 48 3
-21 23 -15 41 8 22 12 -10 14 -9 9 8 -3 14 -14 21 -29 21 -17 0 -22 -4 -18
-15z"/>
<path d="M4234 3969 c-3 -6 1 -18 10 -27 15 -15 16 -14 16 11 0 27 -13 36 -26
16z"/>
<path d="M1614 3928 c13 -20 14 -27 4 -31 -7 -2 -11 -7 -8 -10 3 -3 13 0 22 7
16 12 16 15 -9 37 l-26 24 17 -27z"/>
<path d="M2777 3932 c-15 -17 -12 -46 3 -37 5 3 11 -4 15 -15 8 -26 23 -25 46
2 32 36 25 47 -38 63 -6 2 -18 -4 -26 -13z"/>
<path d="M4055 3920 c-3 -5 -1 -10 4 -10 6 0 11 5 11 10 0 6 -2 10 -4 10 -3 0
-8 -4 -11 -10z"/>
<path d="M3975 3913 c-16 -1 -54 -6 -83 -9 -30 -3 -51 -8 -48 -11 3 -3 -16
-17 -42 -30 -26 -14 -53 -32 -59 -41 -7 -9 -13 -12 -13 -7 0 5 -5 4 -12 -3
-24 -24 -31 -12 -8 13 13 14 21 25 17 25 -11 0 -96 -78 -91 -83 3 -3 -11 -32
-31 -64 -37 -58 -37 -58 -7 -29 17 15 35 25 41 22 7 -5 8 -1 4 10 -5 14 -3 16
11 11 10 -4 15 -3 11 4 -4 5 -1 17 6 25 6 8 9 17 5 21 -3 3 -6 1 -6 -6 0 -7
-5 -9 -10 -6 -8 5 -7 11 0 20 15 18 40 8 33 -13 -4 -13 -2 -13 9 2 11 14 30
20 74 22 32 2 52 1 44 -2 -8 -3 -44 -43 -79 -90 -57 -77 -62 -88 -52 -110 9
-20 8 -24 -6 -24 -9 0 -24 -7 -34 -15 -14 -13 -15 -22 -7 -53 6 -20 11 -56 13
-80 1 -29 9 -50 23 -65 14 -14 22 -17 22 -8 0 11 3 11 15 1 9 -7 18 -10 22 -7
9 10 12 78 3 72 -21 -13 -40 9 -40 45 0 30 4 39 21 43 25 7 37 -18 21 -44 -16
-25 -15 -34 1 -20 8 6 17 8 20 5 3 -4 13 1 22 10 19 19 61 21 68 4 3 -7 6 -4
6 7 1 17 3 17 11 5 8 -13 10 -12 10 4 0 16 3 17 12 8 10 -10 10 -17 -1 -33
-10 -18 -10 -20 1 -17 7 3 13 17 13 31 -1 23 3 27 30 27 32 1 91 28 65 31 -8
1 -1 5 15 9 l30 8 -32 1 c-48 2 -48 16 0 17 79 1 148 11 159 22 9 9 -21 12
-128 12 -162 0 -180 4 -188 35 -4 15 -15 25 -29 27 -17 2 -23 10 -25 39 -3 32
2 41 35 68 29 24 44 30 63 26 37 -9 42 -19 25 -51 -17 -34 -20 -70 -4 -80 6
-3 9 -14 6 -24 -4 -15 3 -19 37 -24 72 -10 212 -2 229 13 24 19 21 25 -18 44
-43 21 -38 42 13 51 33 5 41 1 74 -31 21 -21 38 -46 38 -56 0 -14 5 -18 20
-14 11 3 20 1 20 -4 0 -5 13 -6 30 -3 23 5 38 0 64 -20 19 -14 39 -26 45 -26
21 0 11 31 -14 42 -23 10 -29 20 -26 40 1 12 -113 86 -190 123 -40 19 -97 39
-128 46 -85 17 -90 19 -63 32 12 5 22 14 22 20 0 13 67 -1 96 -20 13 -8 32
-12 42 -8 33 10 213 -81 195 -98 -3 -4 2 -7 13 -8 10 0 13 -3 7 -6 -7 -2 -34
9 -59 27 -57 38 -144 83 -150 77 -3 -3 28 -23 68 -45 40 -22 99 -63 131 -91
32 -28 64 -51 71 -51 8 0 15 14 18 34 2 19 1 33 -3 31 -3 -3 -26 14 -50 36
-26 24 -35 38 -24 34 19 -6 19 -6 2 5 -10 7 -21 9 -24 6 -9 -8 -34 15 -27 25
2 5 -7 11 -21 15 -14 3 -25 11 -25 16 0 6 -7 7 -16 4 -8 -3 -13 -2 -10 3 3 5
-1 12 -10 15 -8 3 -12 2 -9 -4 8 -12 3 -12 -29 0 -29 11 -37 33 -8 23 9 -3 14
-3 10 1 -3 4 -12 9 -20 10 -7 2 -21 6 -30 10 -10 5 -23 6 -30 3 -7 -3 -3 -6 9
-6 12 -1 25 -6 29 -12 5 -9 -1 -10 -22 -5 -36 10 -47 12 -106 20 -26 4 -50 11
-53 17 -6 9 -13 9 -70 2z m-165 -73 c-8 -5 -19 -10 -25 -10 -5 0 -3 5 5 10 8
5 20 10 25 10 6 0 3 -5 -5 -10z m60 -20 c0 -5 -16 -10 -36 -10 -21 0 -33 4
-29 10 3 6 19 10 36 10 16 0 29 -4 29 -10z m123 -134 c17 -17 11 -66 -8 -66
-8 0 -20 -3 -28 -6 -10 -4 -16 5 -21 31 -4 19 -4 40 -1 45 9 15 41 12 58 -4z
m-253 -66 c0 -5 -4 -10 -10 -10 -5 0 -10 5 -10 10 0 6 5 10 10 10 6 0 10 -4
10 -10z"/>
<path d="M1514 3868 c18 -82 36 -194 41 -260 6 -73 5 -78 -13 -78 -27 0 -36
-29 -17 -50 14 -16 14 -18 0 -23 -22 -9 -18 -36 8 -48 12 -6 29 -24 37 -42 7
-17 15 -26 18 -19 2 7 14 12 26 12 19 0 23 -6 24 -30 1 -26 -4 -32 -27 -36
-22 -5 -27 -10 -24 -25 3 -11 11 -18 17 -16 6 2 16 -10 21 -27 11 -35 -3 -144
-21 -167 -16 -19 -39 -98 -31 -105 4 -4 13 -1 22 6 12 10 15 10 15 -3 0 -9 -4
-19 -10 -22 -17 -10 -11 -25 10 -25 12 0 20 7 20 16 0 8 7 22 16 31 8 9 13 22
10 29 -3 8 -2 14 2 14 4 0 12 16 18 35 9 28 8 45 -2 73 -16 44 -18 92 -4 92 6
0 10 19 10 43 l1 42 19 -24 c14 -16 21 -19 24 -10 16 46 3 79 -30 79 -13 0
-24 5 -24 11 0 6 -10 24 -21 41 -15 20 -27 28 -41 25 -14 -4 -18 -1 -13 12 8
25 -4 51 -22 51 -11 0 -13 4 -6 13 11 14 10 194 -2 245 -7 32 -6 33 15 20 18
-11 23 -10 36 6 12 17 16 14 13 -10 0 -4 5 -11 13 -16 9 -7 5 -8 -14 -4 l-26
6 22 -43 c21 -37 27 -42 56 -40 34 1 54 19 42 37 -3 6 -6 22 -6 36 -1 17 -6
24 -16 21 -32 -8 -43 -5 -54 13 -8 14 -8 20 2 23 14 5 17 33 3 33 -6 0 -8 9
-6 20 2 11 -1 20 -7 20 -7 0 -6 6 2 15 9 10 9 15 1 15 -11 0 -15 -13 -12 -37
1 -10 -5 -10 -23 -3 -18 7 -28 5 -37 -6 -11 -13 -14 -11 -23 17 -13 39 -40 53
-32 17z m206 -578 c0 -5 -5 -10 -11 -10 -5 0 -7 5 -4 10 3 6 8 10 11 10 2 0 4
-4 4 -10z"/>
<path d="M5830 3848 c-13 -24 -45 -68 -72 -97 -42 -48 -59 -81 -43 -81 3 0 30
14 60 31 50 28 56 29 62 13 4 -10 2 -19 -3 -21 -33 -12 -35 -20 -15 -66 12
-28 21 -73 22 -110 2 -57 10 -76 33 -77 8 0 4 117 -9 280 -3 25 -5 73 -6 108
-1 34 -2 62 -3 62 -1 0 -13 -19 -26 -42z"/>
<path d="M2032 3863 c-10 -4 -9 -9 4 -24 19 -21 34 -16 34 12 0 19 -12 23 -38
12z"/>
<path d="M5892 3761 c-11 -7 -12 -27 -4 -107 5 -55 10 -193 10 -308 1 -115 3
-211 6 -213 13 -14 57 11 73 40 25 47 23 279 -3 308 -17 19 -17 20 0 13 16 -6
17 -4 9 11 -6 10 -8 26 -6 36 4 14 0 19 -18 20 -15 1 -18 3 -8 6 22 5 14 41
-15 68 -18 18 -19 20 -3 23 18 4 24 22 7 22 -5 0 -10 7 -10 15 0 8 -6 15 -12
15 -10 0 -9 3 1 9 10 7 11 13 2 30 -13 24 -12 23 -29 12z m40 -396 c3 -14 1
-28 -3 -31 -5 -3 -9 1 -9 8 0 7 -3 24 -7 37 -4 16 -2 22 4 18 6 -4 13 -18 15
-32z"/>
<path d="M1490 3585 c0 -8 7 -15 15 -15 9 0 12 6 9 15 -4 8 -10 15 -15 15 -5
0 -9 -7 -9 -15z"/>
<path d="M1664 3585 c3 -8 -1 -21 -9 -29 -20 -19 -19 -26 4 -26 29 0 45 25 31
49 -12 24 -35 29 -26 6z"/>
<path d="M4235 3580 c-8 -13 5 -13 25 0 13 8 13 10 -2 10 -9 0 -20 -4 -23 -10z"/>
<path d="M4198 3563 c7 -3 16 -2 19 1 4 3 -2 6 -13 5 -11 0 -14 -3 -6 -6z"/>
<path d="M2171 3556 c2 -2 15 -9 29 -15 24 -11 24 -11 6 3 -16 13 -49 24 -35
12z"/>
<path d="M2320 3513 c0 -2 9 -12 21 -24 14 -14 27 -18 42 -13 21 7 22 7 2 15
-19 8 -19 9 -1 6 23 -2 31 -47 8 -47 -12 0 -12 -3 -2 -15 7 -8 18 -15 24 -15
6 0 4 5 -4 10 -13 8 -13 10 2 10 10 0 26 9 36 20 l19 21 6 -22 c3 -12 10 -18
17 -14 6 4 22 0 35 -9 23 -15 25 -15 35 4 6 11 16 17 25 14 8 -4 15 -1 15 6 0
7 15 10 43 8 37 -3 42 -6 40 -25 -2 -19 1 -21 19 -14 12 4 24 14 26 22 3 8 1
11 -3 7 -4 -4 -14 -1 -21 7 -7 7 -33 16 -56 20 -24 4 -50 14 -59 22 -13 11
-44 14 -143 11 -69 -2 -126 -4 -126 -5z"/>
<path d="M5848 3412 c-3 -10 1 -54 7 -98 7 -43 11 -82 9 -86 -3 -4 -1 -20 3
-35 l7 -28 5 30 c3 17 5 76 3 133 -3 76 -7 102 -16 102 -8 0 -16 -8 -18 -18z"/>
<path d="M4280 3402 c8 -4 28 -15 43 -26 15 -10 30 -16 34 -12 3 3 2 6 -4 6
-5 0 -20 9 -33 20 -13 11 -30 20 -39 19 -14 0 -14 -1 -1 -7z"/>
<path d="M3960 3391 c8 -6 32 -11 52 -11 29 0 36 -3 32 -15 -8 -20 29 -20 45
-1 17 20 4 25 -76 31 -48 4 -64 3 -53 -4z"/>
<path d="M3940 3350 c18 -12 57 -13 64 -2 3 5 -14 9 -37 10 -31 2 -38 0 -27
-8z"/>
<path d="M5508 3252 c-13 -8 -25 -17 -27 -18 -2 -2 0 -11 4 -21 5 -10 10 -29
12 -43 8 -53 25 -89 44 -95 27 -9 39 -45 43 -127 2 -38 6 -72 9 -75 3 -3 15
18 28 46 12 28 25 51 28 51 4 0 22 -21 40 -46 36 -52 32 -67 -23 -83 l-31 -9
31 -1 c16 -1 39 5 49 13 10 7 27 11 37 8 22 -5 24 11 3 28 -8 7 -15 24 -15 39
0 19 -3 22 -9 12 -8 -12 -11 -12 -23 0 -47 48 -66 102 -26 75 12 -9 32 -16 45
-16 12 0 26 -6 30 -12 4 -7 15 -13 23 -13 9 0 15 -9 15 -24 0 -19 10 -27 49
-43 52 -20 76 -18 76 6 0 20 -11 25 -53 28 -19 2 -33 5 -31 7 2 2 -11 14 -29
26 -31 22 -32 24 -29 88 4 74 4 74 -78 98 -49 14 -55 19 -61 48 -12 57 -82 86
-131 53z m92 -132 c11 -11 16 -20 12 -20 -5 0 -17 9 -27 20 -10 11 -15 20 -12
20 4 0 16 -9 27 -20z m162 -75 c3 -14 2 -27 -2 -30 -9 -6 -31 41 -23 49 12 12
21 5 25 -19z m-69 5 c8 0 8 -3 0 -11 -9 -9 -16 -7 -30 7 -17 17 -17 18 0 11
10 -4 24 -7 30 -7z"/>
<path d="M3570 2802 c0 -6 6 -15 14 -19 24 -14 66 -85 66 -112 0 -15 -7 -36
-15 -48 -10 -14 -12 -24 -5 -28 6 -4 8 -15 5 -26 -8 -24 11 -25 24 -2 8 15 12
11 26 -25 10 -23 21 -42 26 -42 13 0 80 -48 95 -68 7 -9 14 -12 14 -6 0 6 -9
19 -20 29 -61 55 -84 127 -68 214 l12 64 -34 29 c-25 21 -45 28 -75 28 -23 0
-46 5 -53 12 -9 9 -12 9 -12 0z"/>
<path d="M5195 2757 c-27 -44 -28 -47 -18 -47 9 0 47 70 41 76 -2 1 -12 -12
-23 -29z"/>
<path d="M3383 2757 c-2 -23 13 -47 30 -47 5 0 3 8 -5 18 -9 9 -13 22 -11 29
2 6 0 14 -4 16 -5 3 -10 -4 -10 -16z"/>
<path d="M3420 2750 c-9 -6 -10 -10 -3 -10 6 0 15 5 18 10 8 12 4 12 -15 0z"/>
<path d="M2672 2695 c-12 -19 -32 -37 -46 -41 -14 -3 -28 -14 -31 -23 -3 -10
-29 -54 -59 -98 -55 -83 -73 -119 -56 -108 6 3 10 1 10 -4 0 -6 -6 -11 -14
-11 -15 0 -31 -18 -23 -26 10 -11 56 17 104 65 29 28 58 51 66 51 7 0 23 -13
35 -30 22 -29 62 -44 46 -17 -5 8 -2 8 9 -2 15 -12 17 -11 17 13 0 15 -9 44
-20 65 -16 33 -17 40 -5 45 18 7 20 32 3 39 -10 4 -10 6 0 6 6 1 12 6 12 12 0
5 -4 7 -10 4 -5 -3 -10 -1 -10 5 0 6 7 13 15 16 8 4 15 14 15 23 0 14 -2 14
-10 1 -8 -12 -11 -13 -19 -1 -5 7 -6 22 -4 32 8 29 -3 23 -25 -16z m-5 -180
c0 -8 -4 -12 -9 -9 -4 3 -8 9 -8 15 0 5 4 9 8 9 5 0 9 -7 9 -15z m48 -35 c3
-6 -1 -7 -9 -4 -18 7 -21 14 -7 14 6 0 13 -4 16 -10z"/>
<path d="M2780 2650 c0 -5 5 -10 10 -10 6 0 10 -7 10 -15 0 -8 -3 -14 -7 -14
-5 1 -17 1 -28 0 -20 -2 -20 -2 -1 -16 11 -9 24 -11 30 -6 7 5 26 -3 49 -19
21 -16 32 -30 25 -32 -8 -3 -6 -7 5 -11 11 -4 17 -1 17 8 0 8 7 15 15 15 11 0
15 11 15 40 0 34 -4 41 -25 46 -14 3 -25 10 -25 15 0 5 -20 9 -45 9 -25 0 -45
-4 -45 -10z"/>
<path d="M3250 2641 c0 -5 -13 -12 -28 -16 -41 -9 -88 -55 -84 -82 4 -26 22
-32 22 -8 0 9 11 27 24 40 13 13 23 25 21 27 -2 2 12 4 30 5 29 1 34 -2 38
-27 4 -16 14 -31 24 -34 41 -13 112 -23 107 -15 -3 5 0 9 5 9 23 0 9 33 -29
71 -34 34 -45 39 -85 39 -25 0 -45 -4 -45 -9z"/>
<path d="M3048 2608 c-17 -15 -34 -57 -43 -111 -5 -30 -3 -39 12 -44 37 -13
43 -42 13 -61 -27 -17 -124 11 -155 44 -22 24 -55 24 -55 2 0 -6 -11 -24 -26
-40 -14 -17 -28 -43 -31 -58 -4 -25 -11 -29 -67 -40 -33 -7 -64 -17 -68 -23
-14 -21 -8 -36 15 -40 21 -3 20 -4 -7 -16 -16 -6 -41 -9 -55 -6 -20 4 -36 -3
-65 -27 -22 -18 -51 -38 -65 -45 -24 -10 -24 -11 -5 -12 26 -1 43 -20 53 -58
5 -15 13 -27 20 -25 6 1 11 -2 11 -6 0 -10 -33 -42 -43 -42 -12 0 -7 28 6 33
9 3 7 9 -6 24 -9 11 -14 23 -10 27 11 10 -18 26 -49 26 -55 0 -57 -12 -55
-234 2 -190 1 -205 -17 -225 -15 -17 -16 -20 -4 -16 14 6 14 0 1 -57 -8 -34
-19 -68 -25 -75 -5 -7 -12 -39 -15 -73 -3 -33 -10 -60 -15 -60 -5 0 -4 -9 2
-20 7 -14 7 -20 0 -20 -5 0 -11 6 -12 13 0 6 -2 17 -3 22 -3 21 -64 75 -84 75
-16 0 -21 6 -21 28 0 20 -3 23 -10 12 -7 -12 -12 -11 -30 5 -12 11 -28 32 -36
47 -9 18 -20 25 -29 22 -9 -4 -15 -1 -15 7 0 8 -3 10 -10 3 -14 -14 -21 -82
-9 -89 5 -4 7 -10 4 -15 -9 -14 15 -23 29 -11 7 6 16 7 21 3 4 -4 4 4 1 18 -6
19 -5 21 3 10 12 -17 4 -61 -13 -72 -8 -5 -7 -8 1 -8 19 0 38 -41 23 -50 -9
-5 -2 -22 24 -60 20 -29 36 -63 36 -75 0 -40 99 -173 119 -161 11 7 43 -33 35
-45 -3 -5 2 -19 10 -31 7 -13 24 -54 37 -93 12 -38 28 -77 34 -85 7 -8 11 -20
8 -26 -2 -6 10 -62 26 -125 16 -63 37 -149 46 -192 9 -43 18 -77 20 -75 2 2
-1 44 -6 93 -19 193 -32 251 -60 282 -19 20 -20 25 -6 20 18 -7 21 1 11 27 -5
14 -9 14 -22 4 -14 -11 -14 -10 0 11 15 21 15 28 3 59 -8 19 -15 44 -14 56 0
11 3 15 6 9 2 -7 11 -13 19 -13 8 0 14 -7 14 -15 0 -19 64 -59 119 -76 29 -9
47 -21 57 -40 20 -40 18 -46 -26 -74 -22 -14 -40 -29 -40 -33 0 -10 84 -47
139 -62 28 -7 55 -24 74 -46 36 -40 65 -48 45 -11 -17 32 -18 46 -2 40 8 -3
11 -10 8 -15 -4 -6 2 -7 17 -3 20 6 22 5 12 -6 -18 -19 -17 -63 1 -56 8 3 17
0 19 -8 8 -19 107 -31 118 -14 14 23 -4 100 -50 218 -12 29 -20 55 -18 57 2 2
16 -27 31 -66 15 -38 33 -73 38 -76 7 -4 8 -2 4 4 -5 8 0 12 13 12 12 0 21 -4
21 -9 0 -5 9 -13 20 -16 11 -3 20 -12 20 -20 0 -11 -7 -12 -32 -4 -18 5 -34 9
-34 9 -1 0 2 -19 8 -42 5 -24 7 -51 5 -60 -4 -15 2 -18 31 -19 33 -1 30 -2
-23 -15 -62 -15 -111 -12 -99 8 5 7 -6 9 -32 6 -24 -3 -47 1 -61 9 -21 14 -21
14 -10 -10 6 -14 17 -23 23 -20 14 5 13 -22 -1 -34 -4 -4 -5 -2 0 6 6 10 4 12
-4 7 -13 -9 -6 -21 12 -21 7 -1 11 -5 10 -11 -1 -5 8 -11 20 -11 12 -1 27 -10
34 -19 7 -10 15 -15 18 -12 9 8 -24 38 -41 38 -9 0 -12 5 -8 12 4 7 3 8 -4 4
-7 -4 -12 -2 -12 3 0 16 30 13 36 -4 3 -8 15 -17 26 -21 15 -4 18 -12 14 -29
-5 -18 -1 -25 14 -30 11 -3 20 -11 20 -16 0 -12 -17 -12 -25 1 -8 12 -25 13
-25 1 0 -15 64 -34 68 -21 2 6 11 2 19 -9 17 -24 30 -27 30 -6 0 8 -4 12 -8 9
-4 -2 -10 0 -14 6 -3 5 -3 10 2 11 4 0 16 2 25 4 41 8 153 -54 133 -73 -11
-11 -154 -8 -147 3 3 6 -2 4 -11 -4 -9 -7 -17 -10 -17 -5 0 19 -18 35 -48 44
l-32 9 20 -29 c30 -43 95 -84 74 -47 -4 6 2 4 13 -6 11 -9 34 -17 52 -17 19 0
30 -4 26 -10 -3 -5 2 -10 12 -10 10 0 29 -3 43 -5 22 -5 22 -4 5 4 -20 10 -20
10 0 10 12 1 26 6 32 12 9 9 25 2 63 -26 63 -46 113 -59 151 -39 15 7 30 18
34 23 8 13 -32 69 -85 119 -25 23 -40 42 -35 42 13 0 94 -79 119 -115 18 -26
18 -26 33 -6 8 12 23 21 34 21 11 0 17 4 14 10 -3 5 -2 10 4 10 5 0 11 -5 13
-11 2 -5 10 -11 18 -12 8 -2 20 -6 27 -10 6 -4 14 -3 18 2 3 6 12 8 19 5 7 -3
19 2 26 11 7 8 9 15 5 15 -4 0 -2 6 4 14 10 12 9 14 -7 9 -27 -7 -38 25 -15
43 10 7 21 14 26 14 18 0 5 20 -14 20 -12 0 -17 4 -13 11 3 6 17 9 30 6 13 -2
25 1 28 7 2 6 5 3 5 -8 1 -12 6 -16 17 -12 9 3 18 6 20 6 3 0 3 4 0 8 -7 12
28 11 35 -1 11 -16 39 1 39 23 0 11 7 36 15 56 17 40 27 112 16 118 -14 9 -96
-17 -114 -36 -10 -10 -25 -18 -35 -19 -22 -1 -45 -4 -177 -23 -60 -9 -137 -18
-170 -21 -56 -5 -58 -4 -28 7 24 10 30 17 23 28 -20 32 22 34 46 2 9 -13 25
-13 110 -3 54 7 112 19 128 27 16 8 39 14 51 14 30 0 174 71 272 135 65 43 86
63 98 92 9 21 24 56 33 78 l18 40 0 -42 c-1 -26 -8 -49 -21 -63 -18 -20 -16
-20 33 5 44 22 52 30 46 47 -4 15 -2 19 7 15 8 -2 13 -10 11 -16 -1 -6 5 -11
13 -11 8 0 24 -6 35 -12 18 -11 23 -9 45 16 29 34 34 57 7 33 -25 -22 -27 -22
-30 10 -1 15 -9 37 -17 50 -9 13 -13 29 -9 35 5 7 -1 9 -20 4 -14 -3 -26 -4
-26 -1 0 4 18 36 40 72 22 37 40 71 40 76 0 5 9 20 20 34 39 50 19 46 -34 -8
-67 -66 -106 -100 -106 -92 0 4 12 19 26 34 25 26 26 31 14 58 -7 17 -19 36
-28 43 -13 11 -14 10 -7 -11 6 -19 4 -23 -9 -18 -29 11 -106 -104 -106 -158 0
-14 -4 -25 -10 -25 -17 0 -11 35 15 86 23 46 24 50 8 62 -19 14 -35 12 -41 -6
-2 -7 4 -12 13 -12 12 0 15 -5 11 -16 -3 -9 -6 -20 -6 -25 0 -6 -4 -7 -10 -4
-5 3 -8 0 -5 -7 2 -7 -7 -21 -20 -31 -14 -10 -25 -13 -25 -7 0 5 -7 10 -16 10
-11 0 -15 6 -11 20 3 13 0 20 -9 20 -10 0 -14 -13 -14 -42 0 -28 3 -38 9 -29
7 10 13 11 30 1 18 -9 20 -14 10 -26 -9 -11 -15 -12 -25 -3 -11 9 -14 8 -14
-4 0 -9 -16 -24 -35 -33 -38 -18 -63 -44 -29 -29 10 4 30 10 44 13 25 5 25 5
6 -17 -15 -16 -17 -24 -8 -33 9 -9 16 -7 31 6 28 26 36 -6 7 -33 -22 -21 -66
-29 -66 -12 0 5 -10 11 -22 14 -12 4 -19 9 -15 13 11 11 -23 65 -36 57 -7 -4
-5 2 3 12 14 17 14 18 -6 7 -12 -6 -25 -8 -30 -4 -5 4 -2 -2 6 -12 8 -11 10
-17 3 -13 -6 4 -14 3 -18 -3 -3 -5 0 -10 7 -10 7 -1 27 -12 43 -25 26 -22 28
-25 10 -26 -16 0 -17 -2 -4 -7 14 -6 14 -12 3 -42 -12 -34 -13 -34 -13 -7 -1
20 -6 27 -20 27 -11 0 -21 8 -24 18 -3 15 -5 15 -11 -3 -5 -11 -10 -26 -12
-33 -3 -10 -8 -10 -26 -1 -14 8 -18 14 -10 17 6 2 12 8 12 13 0 4 -10 5 -22 0
-17 -6 -27 -1 -50 23 -29 30 -29 30 -23 6 6 -23 5 -24 -6 -5 -7 11 -18 26 -25
32 -17 18 -64 17 -64 -1 0 -10 -7 -12 -22 -8 -12 3 -18 7 -12 9 15 5 4 74 -13
80 -12 5 -12 7 -1 14 11 8 11 11 -1 18 -7 5 -10 14 -7 20 4 6 3 11 -3 11 -5 0
-13 9 -16 21 -4 11 -10 18 -13 14 -7 -7 -8 -12 -11 -40 -2 -21 -160 -21 -223
1 -49 16 -118 16 -119 -1 0 -5 5 -11 12 -14 7 -2 9 1 5 8 -10 15 5 14 50 -5
36 -15 37 -17 19 -30 -10 -8 -27 -12 -36 -9 -20 7 -31 -8 -34 -44 -1 -14 -3
-33 -4 -41 -4 -24 -19 20 -20 56 -1 17 -8 37 -16 44 -8 7 -12 16 -9 21 3 5 -6
9 -19 9 -22 0 -24 -4 -23 -39 0 -22 3 -35 7 -30 10 17 19 -33 9 -50 -8 -14
-11 -12 -16 7 -6 20 -12 23 -35 18 -17 -3 -29 -1 -29 5 0 6 -4 8 -10 4 -5 -3
-19 4 -31 16 -16 16 -18 21 -6 16 9 -3 17 -3 17 2 0 5 -13 11 -29 13 -33 5
-33 0 14 -92 15 -29 25 -54 23 -55 -2 -2 -23 34 -47 81 -25 50 -47 81 -53 77
-6 -3 -8 -1 -5 5 9 13 -2 44 -13 37 -4 -3 -7 3 -6 13 1 13 -7 17 -39 17 -34 0
-40 3 -43 23 -4 24 -18 30 -24 10 -3 -7 -10 15 -17 49 -6 34 -16 65 -21 68 -6
4 -7 -1 -3 -11 4 -12 3 -15 -5 -10 -7 4 -12 2 -12 -5 0 -8 -4 -8 -16 2 -23 19
-56 19 -49 1 3 -8 -4 -24 -17 -36 -21 -19 -21 -20 -14 -1 9 24 15 43 9 33 -3
-5 -8 -8 -13 -8 -4 0 -1 19 7 41 7 23 12 43 10 46 -6 5 -77 -77 -77 -88 0 -5
6 -6 13 -3 8 3 13 -4 14 -17 1 -12 8 -29 16 -38 8 -9 20 -27 26 -41 10 -21 10
-22 -1 -6 -23 35 -49 57 -58 51 -6 -4 -10 1 -10 10 0 10 5 13 12 9 7 -4 8 -3
4 4 -13 21 -24 13 -31 -25 l-8 -38 -9 34 c-7 26 -6 37 7 51 16 18 16 20 -5 42
-15 16 -20 33 -19 58 2 20 0 40 -4 46 -3 6 -4 35 0 64 6 51 7 52 35 46 26 -5
28 -3 28 24 0 17 -5 30 -11 30 -5 0 -7 5 -4 10 3 6 -1 10 -10 10 -9 0 -13 5
-10 10 4 6 2 17 -4 24 -7 8 -7 23 -1 45 5 18 6 39 3 47 -3 8 1 14 10 14 8 0
18 -6 20 -12 3 -8 6 -6 6 5 1 9 -6 17 -14 17 -18 0 -19 -5 4 55 33 89 43 104
86 125 51 25 148 28 139 5 -7 -18 7 -20 25 -2 10 10 12 9 9 -3 -2 -10 3 -14
15 -12 9 2 16 -2 15 -9 -4 -17 33 -20 49 -3 8 8 24 14 36 15 21 0 21 1 2 8
-16 7 -15 9 11 14 30 6 125 0 133 -9 2 -2 9 0 15 5 6 5 30 6 56 1 29 -5 50 -4
58 2 8 7 12 7 12 -2 0 -10 3 -10 15 0 12 10 15 10 15 -4 0 -20 7 -20 26 -1 17
17 39 21 29 5 -3 -5 3 -10 14 -10 12 0 21 4 21 8 0 5 10 8 23 7 12 -2 21 -8
20 -14 -4 -13 9 -15 23 -2 5 5 22 7 37 4 21 -4 25 -8 15 -14 -9 -6 -7 -9 8 -9
12 0 24 7 28 15 7 18 42 20 49 3 4 -10 8 -10 14 -2 4 6 18 14 29 18 22 7 174
8 229 2 17 -2 53 -5 80 -6 49 -3 49 -3 15 -10 -33 -7 -31 -8 20 -10 50 -3 70
-4 94 -9 5 0 3 -8 -4 -16 -6 -8 -9 -23 -5 -35 4 -13 1 -22 -9 -26 -14 -6 -14
-10 3 -38 13 -21 18 -41 14 -57 -6 -21 -5 -23 10 -10 12 9 17 10 17 2 0 -7 5
-9 10 -6 6 4 22 -1 36 -10 l26 -17 -21 -14 c-24 -17 -27 -43 -8 -63 21 -23
-41 -3 -64 20 -19 19 -23 19 -36 6 -12 -12 -13 -19 -4 -36 7 -11 18 -21 26
-21 20 0 19 -10 -2 -26 -14 -10 -16 -16 -7 -31 7 -10 19 -17 28 -15 9 2 16 -2
16 -7 0 -5 -10 -12 -22 -14 l-23 -4 22 -8 c15 -5 22 -14 20 -28 -1 -14 5 -23
18 -25 40 -9 54 -61 16 -62 -10 -1 -6 -6 12 -16 21 -12 27 -22 27 -50 0 -22 6
-37 15 -40 8 -4 15 -14 15 -23 1 -13 5 -11 20 7 11 13 16 30 13 40 -3 9 -3 14
2 10 7 -7 13 -3 48 38 17 20 16 22 -4 47 -11 15 -20 41 -20 59 0 18 0 43 0 56
0 12 -1 48 -1 80 -1 31 2 81 5 110 5 42 4 52 -8 52 -8 0 -15 -7 -15 -17 0 -9
-3 -13 -7 -9 -10 10 -11 188 -1 209 6 11 6 23 0 30 -6 7 -7 32 -3 59 9 52 -13
153 -48 231 -12 25 -21 51 -21 57 0 6 -4 8 -10 5 -5 -3 -10 -24 -10 -46 0 -37
-2 -39 -30 -39 -26 0 -30 4 -31 28 -1 15 -2 33 -3 41 -2 23 -164 68 -271 76
-11 1 -33 2 -50 3 -23 2 -26 5 -15 12 23 14 6 22 -24 10 -30 -11 -95 -13 -119
-4 -13 5 -13 8 4 25 20 20 26 49 9 49 -5 0 -10 -5 -10 -12 0 -21 -13 1 -15 25
-2 35 -76 69 -142 63 -34 -3 -53 0 -56 7 -3 9 -10 9 -26 0 -30 -19 -101 -17
-101 2 0 18 -16 20 -24 3 -3 -7 -3 3 0 22 3 19 7 36 9 38 6 6 -22 32 -35 32
-7 0 -8 6 0 19 12 23 14 91 2 91 -5 0 -15 -6 -24 -12z m26 -169 c-6 -11 -24
-2 -24 11 0 5 7 7 15 4 8 -4 12 -10 9 -15z m-434 -298 c0 -13 -29 -35 -37 -28
-7 8 15 37 28 37 5 0 9 -4 9 -9z m428 -30 c3 -8 -4 -12 -19 -10 -13 1 -40 -1
-61 -5 -38 -8 -78 -1 -78 14 0 5 26 10 58 12 82 4 95 3 100 -11z m-406 -13
c-7 -7 -12 -8 -12 -2 0 14 12 26 19 19 2 -3 -1 -11 -7 -17z m218 -3 c0 -8 -4
-15 -9 -15 -13 0 -22 16 -14 24 11 11 23 6 23 -9z m566 -47 c31 -27 39 -30 62
-22 16 6 40 7 57 2 17 -4 64 -15 105 -23 119 -24 147 -35 160 -64 7 -14 16
-34 21 -43 5 -10 9 -21 9 -24 0 -4 -51 -4 -112 1 -62 4 -121 8 -130 8 -9 1
-15 4 -12 8 2 4 -10 10 -28 14 -18 3 -85 19 -148 35 -141 36 -182 38 -242 14
-43 -16 -52 -17 -95 -4 -73 21 -157 23 -231 6 -37 -8 -94 -18 -127 -21 -79 -8
-106 -15 -100 -25 7 -11 -23 -17 -52 -12 -43 8 -31 62 13 62 20 0 100 57 118
85 19 28 41 32 53 10 7 -12 21 -14 78 -6 39 4 85 6 103 3 19 -2 52 2 75 9 31
10 41 11 45 1 5 -15 34 -16 50 0 9 9 21 8 53 -1 43 -13 134 -7 145 10 3 5 25
9 49 9 36 0 52 -6 81 -32z m-831 -8 c-3 -5 -16 -15 -28 -21 -21 -10 -21 -9 2
10 25 23 36 27 26 11z m89 -151 c-3 -5 -16 -9 -30 -9 -14 0 -23 4 -20 9 3 5
17 9 31 9 13 0 22 -4 19 -9z m-234 -170 c0 -11 -4 -17 -10 -14 -5 3 -10 13
-10 21 0 8 5 14 10 14 6 0 10 -9 10 -21z m1550 -331 c0 -17 -3 -18 -15 -8 -8
7 -15 21 -15 32 0 17 3 18 15 8 8 -7 15 -21 15 -32z m-1870 -27 c-13 -26 -13
-28 5 -28 9 0 14 6 11 14 -4 8 -1 11 5 7 6 -3 9 -15 6 -25 -3 -10 -1 -19 5
-21 5 -2 8 -20 6 -41 l-3 -38 -33 55 c-31 53 -32 56 -15 76 22 25 27 26 13 1z
m243 6 c3 -7 -1 -21 -9 -32 -13 -17 -14 -17 -14 13 0 32 14 43 23 19z m-196
-29 c-3 -8 -6 -5 -6 6 -1 11 2 17 5 13 3 -3 4 -12 1 -19z m1808 12 c3 -5 1
-10 -4 -10 -6 0 -11 5 -11 10 0 6 2 10 4 10 3 0 8 -4 11 -10z m95 -100 c0 -5
-5 -10 -11 -10 -5 0 -7 5 -4 10 3 6 8 10 11 10 2 0 4 -4 4 -10z m10 -30 c0
-13 -11 -13 -30 0 -12 8 -11 10 8 10 12 0 22 -4 22 -10z m39 -124 c7 -8 8 -16
4 -19 -12 -7 -53 11 -53 23 0 15 36 12 49 -4z m-1707 -118 c2 -21 0 -38 -4
-38 -4 0 -8 21 -7 48 1 52 6 48 11 -10z m1708 38 c0 -2 -8 -10 -17 -17 -16
-13 -17 -12 -4 4 13 16 21 21 21 13z m-82 -87 c-10 -5 -15 -16 -12 -24 4 -9 0
-15 -7 -15 -11 0 -11 -2 0 -9 12 -8 13 -12 1 -26 -22 -26 -29 2 -12 46 9 23
22 39 31 39 14 -1 14 -2 -1 -11z m-1322 -34 c1 -8 -2 -15 -7 -15 -5 0 -9 10
-9 22 0 23 12 17 16 -7z m1444 -21 c0 -8 -5 -12 -10 -9 -6 4 -8 11 -5 16 9 14
15 11 15 -7z m-375 -14 c16 -17 16 -20 3 -15 -9 4 -19 13 -22 21 -7 19 -2 18
19 -6z m-1398 -7 c0 -9 -4 -10 -14 -2 -7 6 -13 12 -13 14 0 1 6 2 13 2 8 0 14
-6 14 -14z m698 -43 c-3 -5 -14 -10 -23 -10 -15 0 -15 2 -2 10 20 13 33 13 25
0z m641 -57 c-10 -10 -19 5 -10 18 6 11 8 11 12 0 2 -7 1 -15 -2 -18z m-318
-40 c2 -9 -6 -11 -30 -7 -50 10 -60 26 -14 22 22 -2 41 -9 44 -15z m481 -14
c-25 -16 -32 -9 -13 12 12 13 20 16 22 9 3 -7 -2 -16 -9 -21z m-185 5 c32 -12
9 -48 -38 -60 -14 -3 -26 -11 -26 -16 0 -6 -7 -8 -15 -4 -8 3 -15 1 -15 -5 0
-6 -7 -9 -15 -5 -8 3 -15 1 -15 -5 0 -5 -15 -9 -33 -7 l-33 2 14 44 c16 46 31
58 58 48 14 -5 14 -9 3 -24 -8 -9 2 -5 21 10 35 27 64 34 94 22z m-584 -114
c0 -5 -9 -14 -19 -19 -14 -8 -22 -7 -31 3 -11 14 -10 15 43 25 4 0 7 -3 7 -9z
m98 -22 c-7 -20 -48 -23 -48 -4 0 11 9 16 26 16 16 0 24 -5 22 -12z m336 -40
c-3 -4 -9 -8 -15 -8 -5 0 -9 4 -9 8 0 5 7 9 15 9 8 0 12 -4 9 -9z m-384 -2 c0
-2 -7 -6 -15 -10 -8 -3 -15 -1 -15 4 0 6 7 10 15 10 8 0 15 -2 15 -4z m435
-56 c3 -5 1 -10 -4 -10 -6 0 -11 5 -11 10 0 6 2 10 4 10 3 0 8 -4 11 -10z
m-85 -90 c0 -6 -7 -13 -15 -16 -17 -7 -20 -49 -5 -59 6 -4 7 -11 4 -17 -10
-16 -24 13 -24 53 0 20 3 39 7 42 10 11 33 8 33 -3z m-495 -10 c3 -6 -4 -10
-17 -10 -18 0 -20 2 -8 10 19 12 18 12 25 0z m35 -124 c0 -2 -9 -6 -20 -9 -11
-3 -18 -1 -14 4 5 9 34 13 34 5z m85 -26 c-3 -5 -16 -10 -28 -9 -21 0 -21 1
-2 9 28 12 37 12 30 0z"/>
<path d="M3660 680 c0 -6 7 -10 15 -10 8 0 15 2 15 4 0 2 -7 6 -15 10 -8 3
-15 1 -15 -4z"/>
<path d="M3236 2585 c-3 -9 0 -15 9 -15 8 0 15 7 15 15 0 8 -4 15 -9 15 -5 0
-11 -7 -15 -15z"/>
<path d="M5326 2535 c4 -22 18 -56 33 -75 22 -30 26 -46 27 -111 1 -42 -1 -81
-5 -86 -3 -5 -19 -9 -36 -9 l-30 1 -5 -70 c-6 -74 -48 -217 -62 -209 -4 3 -5
-1 -3 -9 3 -7 -5 -46 -17 -87 -21 -65 -27 -75 -53 -82 -34 -9 -35 -8 -39 28
-3 24 -7 28 -27 26 -27 -4 -59 -34 -59 -55 0 -7 8 -22 18 -33 10 -11 18 -30
17 -43 -2 -26 -2 -26 40 33 16 22 45 15 45 -11 0 -10 -17 -47 -36 -83 -20 -36
-43 -78 -52 -95 -8 -16 -26 -44 -39 -61 l-23 -30 28 -55 c15 -30 28 -56 29
-58 1 -2 11 7 22 20 22 26 27 20 11 -12 -9 -16 -7 -19 10 -19 14 0 28 15 48
50 15 27 32 50 39 50 11 0 33 57 33 85 0 14 42 96 66 128 10 15 26 27 34 27
22 1 45 21 62 55 9 17 25 39 37 49 21 19 28 46 13 46 -5 0 -18 -11 -30 -25
-23 -26 -52 -34 -52 -14 0 14 15 73 37 144 8 28 18 113 23 190 4 77 9 147 11
155 3 10 -2 14 -13 12 -14 -2 -16 3 -11 35 3 21 14 58 24 82 32 73 22 109 -28
103 -11 -2 -24 2 -28 7 -3 6 -13 11 -22 11 -9 0 -22 8 -30 18 -12 15 -13 12
-7 -23z m26 -670 c-10 -33 -22 -58 -28 -56 -11 4 -9 11 19 79 27 68 32 55 9
-23z m-82 -237 c-10 -24 -24 -44 -30 -46 -11 -4 12 49 32 76 18 22 17 13 -2
-30z"/>
<path d="M5508 2432 c-30 -18 -34 -32 -18 -61 6 -12 6 -39 -1 -77 -19 -109
-20 -134 -9 -134 17 0 53 21 67 39 15 19 17 45 3 36 -5 -3 -10 1 -10 11 0 13
3 14 14 5 18 -15 56 2 56 23 0 8 7 16 15 20 8 3 15 11 15 18 0 10 -2 10 -9 0
-10 -16 -26 1 -35 38 -3 14 -3 19 0 11 5 -11 8 -11 16 0 6 10 7 6 2 -11 -6
-22 -5 -23 10 -11 12 10 16 10 16 1 0 -10 3 -10 15 0 8 7 15 18 15 26 0 15
-60 60 -76 56 -6 -1 -17 5 -24 13 -16 19 -28 19 -62 -3z m72 -92 c0 -5 -4 -10
-10 -10 -5 0 -10 5 -10 10 0 6 5 10 10 10 6 0 10 -4 10 -10z m30 -42 c0 -5 -5
-8 -11 -8 -5 0 -7 -5 -4 -10 4 -6 -4 -5 -19 1 -14 7 -23 15 -21 19 6 10 55 7
55 -2z m-35 -28 c3 -6 -1 -7 -9 -4 -18 7 -21 14 -7 14 6 0 13 -4 16 -10z m-47
-50 c-1 -19 -8 -35 -20 -41 -17 -9 -18 -7 -13 22 7 37 13 49 25 49 5 0 8 -14
8 -30z"/>
<path d="M4770 1851 c0 -5 5 -13 10 -16 6 -3 10 -2 10 4 0 5 -4 13 -10 16 -5
3 -10 2 -10 -4z"/>
<path d="M2870 1649 c0 -5 9 -9 20 -9 11 0 20 2 20 4 0 2 -9 6 -20 9 -11 3
-20 1 -20 -4z"/>
<path d="M2925 1650 c-3 -5 1 -10 10 -10 9 0 13 5 10 10 -3 6 -8 10 -10 10 -2
0 -7 -4 -10 -10z"/>
<path d="M2828 1643 c7 -3 16 -2 19 1 4 3 -2 6 -13 5 -11 0 -14 -3 -6 -6z"/>
<path d="M2978 1643 c6 -2 18 -2 25 0 6 3 1 5 -13 5 -14 0 -19 -2 -12 -5z"/>
<path d="M3055 1629 c22 -4 58 -8 80 -7 34 0 37 1 15 8 -14 4 -50 8 -80 8 -55
0 -55 0 -15 -9z"/>
<path d="M3208 1623 c7 -3 16 -2 19 1 4 3 -2 6 -13 5 -11 0 -14 -3 -6 -6z"/>
<path d="M3280 1611 c8 -6 29 -11 47 -11 34 0 52 -14 31 -24 -7 -3 -4 -4 7 -2
11 2 37 7 58 11 50 8 47 25 -5 25 -32 0 -39 -3 -28 -10 13 -8 13 -10 -2 -10
-9 0 -18 4 -20 9 -1 5 -25 12 -53 16 -36 5 -46 4 -35 -4z"/>
<path d="M5070 1610 c0 -5 -6 -10 -14 -10 -8 0 -17 -13 -21 -29 -3 -16 -13
-35 -21 -42 -17 -14 -19 -40 -1 -34 12 5 59 77 70 108 4 9 2 17 -3 17 -6 0
-10 -4 -10 -10z"/>
<path d="M2331 1594 c0 -11 3 -14 6 -6 3 7 2 16 -1 19 -3 4 -6 -2 -5 -13z"/>
<path d="M2790 1600 c-8 -5 -12 -11 -10 -14 3 -2 14 2 24 10 22 15 10 19 -14
4z"/>
<path d="M5980 1599 c0 -5 5 -7 10 -4 6 3 10 8 10 11 0 2 -4 4 -10 4 -5 0 -10
-5 -10 -11z"/>
<path d="M2751 1544 c0 -11 3 -14 6 -6 3 7 2 16 -1 19 -3 4 -6 -2 -5 -13z"/>
<path d="M3286 1523 c-4 -5 -11 -8 -14 -9 -4 0 -23 -8 -42 -16 l-35 -17 35 6
c19 3 44 14 55 24 11 11 17 19 14 19 -3 0 -9 -3 -13 -7z"/>
<path d="M2980 1500 c8 -5 22 -9 30 -9 10 0 8 3 -5 9 -27 12 -43 12 -25 0z"/>
<path d="M3030 1496 c0 -9 5 -16 10 -16 6 0 10 4 10 9 0 6 -4 13 -10 16 -5 3
-10 -1 -10 -9z"/>
<path d="M3090 1480 c-9 -6 -10 -10 -3 -10 6 0 15 5 18 10 8 12 4 12 -15 0z"/>
<path d="M4181 1474 c0 -11 3 -14 6 -6 3 7 2 16 -1 19 -3 4 -6 -2 -5 -13z"/>
<path d="M4951 1444 c-21 -28 -38 -41 -43 -36 -15 15 -48 2 -48 -19 0 -15 7
-19 34 -19 28 0 38 7 62 43 15 23 30 44 31 46 2 2 6 2 9 -2 4 -3 -8 -24 -25
-46 -22 -27 -27 -41 -19 -44 7 -3 2 -6 -12 -7 -14 -1 -32 -3 -40 -4 -8 -2 -34
-3 -58 -4 -37 -2 -49 -9 -100 -59 -52 -52 -55 -57 -34 -61 44 -7 37 -31 -26
-93 -34 -32 -66 -59 -72 -59 -5 0 -10 -7 -10 -16 0 -12 8 -9 34 12 18 16 59
49 90 74 52 40 56 45 40 57 -10 7 -15 16 -11 20 4 3 15 -1 26 -11 17 -16 21
-15 70 10 31 16 75 29 107 32 47 4 57 9 76 36 12 17 26 34 31 38 6 3 -14 11
-44 16 l-54 11 48 -2 c37 -2 47 1 47 13 0 17 -52 104 -67 113 -4 3 -23 -15
-42 -39z"/>
<path d="M3120 1453 c0 -1 9 -7 20 -13 15 -8 20 -8 20 3 0 7 -9 13 -20 13 -11
0 -20 -1 -20 -3z"/>
<path d="M5405 1440 c3 -5 8 -10 11 -10 2 0 4 5 4 10 0 6 -5 10 -11 10 -5 0
-7 -4 -4 -10z"/>
<path d="M5494 1406 c-3 -8 0 -24 6 -36 10 -18 8 -24 -6 -34 -9 -7 -14 -18
-10 -25 12 -19 66 19 66 47 0 49 -42 85 -56 48z"/>
<path d="M4780 1380 c-8 -5 -12 -12 -9 -15 4 -3 12 1 19 10 14 17 11 19 -10 5z"/>
<path d="M3043 1353 c-15 -5 -18 -33 -4 -33 5 0 11 9 14 20 3 11 4 20 4 19 -1
0 -8 -3 -14 -6z"/>
<path d="M3151 1344 c0 -11 3 -14 6 -6 3 7 2 16 -1 19 -3 4 -6 -2 -5 -13z"/>
<path d="M5088 1335 c-2 -3 -2 -19 0 -36 l5 -32 12 29 c7 16 10 32 8 37 -5 8
-17 9 -25 2z"/>
<path d="M3129 1320 c-10 -30 -4 -52 16 -60 12 -5 25 -16 29 -26 5 -12 10 -14
17 -7 7 7 4 21 -10 44 -12 19 -21 30 -21 25 0 -6 -7 -1 -15 10 -8 10 -15 17
-16 14z"/>
<path d="M4695 1290 c-16 -16 -26 -32 -23 -35 3 -3 17 10 32 30 33 43 29 45
-9 5z"/>
<path d="M5531 1295 c-19 -9 -31 -20 -28 -27 3 -7 17 -39 31 -70 14 -32 21
-60 16 -63 -10 -6 -37 38 -56 90 -6 17 -17 30 -25 30 -15 0 -15 -6 -4 -42 7
-26 -7 -30 -51 -13 -24 9 -35 6 -77 -20 -87 -54 -227 -163 -227 -176 0 -53
-68 -115 -170 -158 -45 -18 -138 -113 -280 -286 -191 -232 -174 -206 -161
-251 16 -53 1 -84 -37 -74 -15 3 -34 7 -43 8 -8 1 -56 -43 -107 -100 -97 -108
-98 -110 -33 -132 86 -29 282 7 304 56 6 13 15 23 20 23 5 0 3 -7 -4 -16 -12
-14 -11 -16 6 -12 12 2 19 10 17 20 -1 9 2 19 8 23 6 4 10 3 9 -2 -3 -20 3
-23 24 -12 40 21 111 81 175 148 53 54 62 69 57 90 -5 21 -4 23 9 12 13 -11
22 -3 60 56 24 37 76 133 115 213 39 80 71 141 71 137 0 -17 -132 -291 -172
-356 -72 -115 -234 -269 -348 -328 -52 -27 -57 -55 -6 -32 32 15 48 3 22 -17
-17 -12 4 -14 173 -14 186 0 193 1 198 21 3 11 11 18 18 15 7 -2 47 30 90 71
43 42 96 86 119 98 22 12 43 30 44 41 6 29 18 37 38 26 19 -10 32 0 152 119
136 134 352 385 352 408 0 4 -10 24 -22 46 -12 22 -33 67 -47 100 -29 65 -64
129 -118 214 -19 29 -37 70 -40 90 -6 35 -19 61 -32 61 -3 -1 -21 -7 -40 -15z
m-62 -172 c13 -13 27 -23 31 -23 15 0 117 -167 107 -176 -2 -2 -17 22 -33 53
-18 35 -62 90 -114 142 -73 73 -68 75 9 4z m184 -72 c10 -18 13 -32 8 -36 -9
-5 -51 62 -51 81 0 12 25 -14 43 -45z m-3 -235 c0 -10 -20 -36 -45 -58 -41
-37 -60 -78 -34 -78 17 0 52 21 81 48 15 14 31 22 35 18 9 -8 -36 -48 -80 -72
-20 -11 -32 -12 -47 -4 -31 17 -24 39 31 91 54 51 53 44 25 134 -4 11 3 2 14
-20 11 -22 20 -48 20 -59z"/>
<path d="M5051 1259 c-16 -35 -6 -53 15 -25 15 21 19 56 6 56 -4 0 -13 -14
-21 -31z"/>
<path d="M4543 1218 c-23 -24 -49 -62 -59 -86 -22 -56 -52 -69 -97 -42 -42 26
-47 25 -47 -9 0 -20 8 -34 25 -45 31 -20 32 -40 4 -60 -21 -14 -21 -14 -1 -25
22 -12 33 -6 26 14 -5 12 24 30 34 21 9 -9 -71 -96 -94 -102 -37 -10 -31 -42
12 -60 42 -18 59 -14 59 12 0 10 5 18 11 17 6 -1 17 9 24 22 7 14 17 25 22 25
4 0 8 5 8 11 0 6 14 22 30 36 27 22 60 71 60 88 0 3 -7 5 -16 5 -14 0 -14 3
-4 15 7 9 19 14 27 11 7 -3 13 1 13 9 0 8 -7 15 -15 15 -9 0 -12 6 -9 15 5 11
10 13 19 5 9 -8 14 -4 17 15 6 28 -1 32 -21 13 -11 -11 -11 -9 -2 9 14 28 31
113 22 113 -4 0 -25 -19 -48 -42z m-23 -223 c-12 -15 -40 -21 -40 -8 0 3 8 15
17 25 21 23 43 7 23 -17z m-50 -46 c13 -9 13 -10 -1 -6 -11 4 -20 -3 -27 -17
-6 -13 -22 -26 -37 -28 -25 -5 -25 -5 -8 16 20 23 46 45 53 46 3 0 12 -5 20
-11z"/>
<path d="M4909 1235 c-88 -31 -258 -148 -309 -212 -24 -30 -26 -63 -5 -63 8 0
24 -9 35 -20 23 -23 28 -22 132 57 54 41 57 45 52 80 -2 20 -10 41 -17 45 -9
6 -9 8 2 8 9 0 11 8 7 28 -5 19 -4 23 3 12 6 -8 13 -39 17 -69 l7 -55 30 35
c17 19 34 34 38 34 4 0 11 4 16 9 5 5 3 6 -4 2 -7 -4 -13 -3 -13 3 0 11 30 30
42 28 3 -1 10 2 15 7 5 5 3 6 -4 2 -20 -11 -15 4 12 36 14 16 25 33 25 36 0
12 -43 10 -81 -3z m-124 -190 c0 -6 -6 -9 -12 -9 -7 1 -10 -2 -8 -7 3 -4 -3
-13 -14 -18 -32 -17 -36 -13 -13 12 12 13 20 26 17 29 -3 2 3 4 13 3 9 0 17
-5 17 -10z"/>
<path d="M2497 1233 c-9 -2 -15 -9 -12 -14 4 -5 -1 -9 -9 -9 -9 0 -16 -7 -16
-15 0 -22 12 -17 38 16 13 16 22 28 20 28 -2 -1 -11 -3 -21 -6z"/>
<path d="M3220 1220 c0 -5 7 -13 16 -18 9 -5 14 -12 12 -16 -1 -5 21 -10 50
-12 34 -3 52 0 52 7 0 6 -8 8 -17 5 -17 -6 -17 -5 0 8 23 18 22 29 -3 21 -12
-4 -27 -1 -35 5 -8 7 -20 10 -27 7 -9 -4 -7 -6 3 -6 9 -1 19 -7 22 -15 7 -18
-27 -10 -44 10 -13 16 -29 18 -29 4z"/>
<path d="M3365 1220 c-3 -5 -2 -10 4 -10 5 0 13 5 16 10 3 6 2 10 -4 10 -5 0
-13 -4 -16 -10z"/>
<path d="M3433 1205 c0 -8 6 -15 13 -15 6 0 30 -21 53 -47 22 -26 41 -43 41
-38 -1 10 -39 54 -82 93 -19 17 -25 19 -25 7z"/>
<path d="M5210 1189 c-63 -35 -100 -66 -100 -86 0 -8 -5 -11 -11 -7 -12 7 -79
-53 -79 -71 0 -7 -18 -37 -41 -68 -22 -32 -38 -57 -35 -57 3 0 30 21 59 48 96
85 112 98 225 182 62 45 112 84 112 86 0 2 -17 4 -37 3 -22 0 -61 -12 -93 -30z"/>
<path d="M4983 1158 c-21 -29 -64 -77 -95 -107 -42 -38 -58 -61 -58 -79 0 -26
0 -26 28 8 15 19 37 44 49 56 31 29 133 157 133 167 0 20 -22 2 -57 -45z"/>
<path d="M3198 1078 c-5 -41 -3 -56 6 -47 10 11 17 89 8 89 -5 0 -12 -19 -14
-42z"/>
<path d="M3145 1060 c-3 -5 1 -10 9 -10 9 0 16 5 16 10 0 6 -4 10 -9 10 -6 0
-13 -4 -16 -10z"/>
<path d="M2270 1020 c6 -11 16 -20 22 -20 6 0 3 9 -7 20 -10 11 -20 20 -22 20
-2 0 1 -9 7 -20z"/>
<path d="M5018 934 c-43 -36 -78 -67 -78 -69 0 -12 21 -2 77 34 41 27 64 49
71 70 6 17 10 31 9 31 -1 0 -37 -30 -79 -66z"/>
<path d="M4807 983 c-4 -6 -35 -30 -69 -52 l-62 -40 55 -25 c30 -14 72 -28 95
-32 l40 -6 51 68 c28 38 50 70 49 72 -2 1 -20 -7 -42 -18 -70 -35 -144 -67
-144 -62 0 3 9 16 21 28 13 14 19 32 17 50 -2 18 -6 24 -11 17z"/>
<path d="M4269 969 c16 -6 28 -6 35 1 7 7 -1 10 -24 9 -33 0 -34 -1 -11 -10z"/>
<path d="M4523 924 c-15 -20 -39 -49 -53 -65 -67 -74 -64 -65 -39 -123 18 -42
22 -72 24 -171 l2 -120 -6 102 c-3 56 -9 105 -13 109 -4 4 -21 -7 -37 -25 -36
-39 -65 -42 -59 -6 4 17 0 25 -11 27 -11 2 -31 -22 -62 -72 l-45 -75 18 -48
c25 -65 22 -80 -5 -33 -27 49 -38 53 -57 22 -8 -14 -36 -52 -62 -85 -27 -34
-48 -68 -48 -77 0 -27 60 -140 95 -180 l34 -39 81 80 c117 115 146 158 156
230 7 54 8 57 13 26 l6 -34 44 44 c24 24 76 82 115 129 39 47 108 126 153 176
45 51 79 94 76 98 -4 3 -15 6 -26 6 -10 0 -49 14 -84 31 l-66 31 -39 -21 c-60
-32 -78 -27 -37 10 25 23 30 33 20 37 -8 3 -25 16 -37 29 l-22 24 -29 -37z
m-193 -362 c0 -4 -9 -13 -19 -19 -16 -10 -20 -9 -25 3 -3 8 -2 13 2 10 4 -2
14 -1 22 5 18 11 20 11 20 1z m-60 -282 c-7 -29 -8 -23 -8 35 0 58 1 64 8 35
5 -19 5 -51 0 -70z m-48 -43 c10 -10 23 -15 28 -12 6 3 10 2 10 -4 0 -5 -4
-12 -9 -16 -13 -8 -61 42 -60 63 0 14 2 14 6 2 3 -8 14 -23 25 -33z"/>
<path d="M2488 848 c13 -14 22 -37 22 -55 0 -17 5 -33 12 -35 8 -3 7 -9 -4
-18 -14 -13 -14 -16 1 -27 13 -10 22 -6 48 19 32 31 32 32 15 60 -9 15 -21 28
-27 28 -6 0 -28 12 -50 27 l-40 26 23 -25z"/>
<path d="M4086 813 c-6 -14 -5 -15 5 -6 7 7 10 15 7 18 -3 3 -9 -2 -12 -12z"/>
<path d="M4310 809 c0 -6 -5 -7 -10 -4 -6 4 -16 2 -23 -4 -7 -5 -35 -8 -61 -6
-42 3 -56 -1 -101 -30 -48 -30 -54 -39 -64 -83 -17 -81 -24 -177 -17 -236 7
-53 8 -55 29 -43 12 7 25 16 28 20 3 5 10 9 15 9 21 1 40 13 61 37 24 29 19
46 -25 94 -27 29 -60 35 -81 15 -11 -11 -11 -9 -2 10 18 34 55 28 106 -19 l44
-40 24 38 c39 61 47 80 39 88 -4 5 -2 5 4 2 19 -11 79 75 85 122 3 19 -2 26
-23 32 -17 4 -28 3 -28 -2z m-7 -36 c-7 -3 -13 -12 -13 -21 -1 -9 -7 -30 -15
-47 l-15 -30 6 35 c7 40 32 85 42 74 4 -3 1 -9 -5 -11z"/>
<path d="M4380 770 c0 -5 -13 -29 -29 -52 -16 -24 -28 -44 -27 -46 8 -7 106
21 106 31 0 14 -37 77 -45 77 -3 0 -5 -4 -5 -10z"/>
<path d="M5768 682 c-42 -53 -87 -108 -100 -122 -51 -55 -51 -59 -8 -38 23 12
49 33 58 47 9 14 25 35 34 45 10 11 18 23 18 28 0 21 17 4 32 -32 12 -28 23
-40 37 -40 29 0 26 15 -9 52 -16 17 -30 35 -30 39 0 17 23 21 32 5 20 -36 58
-10 40 27 -6 12 -15 36 -19 54 l-8 32 -77 -97z"/>
<path d="M3989 682 c-31 -23 -52 -45 -50 -53 9 -35 7 -70 -7 -81 -19 -16 -89
-174 -81 -182 2 -2 25 -7 52 -11 45 -7 47 -6 47 17 0 17 6 24 20 24 11 0 20
-4 20 -9 0 -11 30 -41 31 -30 1 4 1 60 1 123 -1 66 5 140 13 175 8 32 13 60
11 62 -1 2 -27 -14 -57 -35z"/>
<path d="M2550 651 c16 -31 67 -63 85 -54 11 6 4 14 -30 32 -25 13 -45 28 -45
32 0 5 -5 9 -10 9 -7 0 -7 -6 0 -19z"/>
<path d="M2522 630 c-10 -17 -10 -20 2 -20 8 0 18 -9 21 -20 4 -13 15 -20 31
-20 31 0 30 5 -9 46 -31 33 -32 34 -45 14z"/>
<path d="M2676 587 c3 -9 15 -19 26 -22 10 -4 23 -16 29 -28 7 -18 8 -18 6 -3
-1 10 -17 30 -35 44 -22 17 -31 20 -26 9z"/>
<path d="M2740 443 c5 -2 8 -9 5 -13 -3 -5 -1 -11 4 -14 5 -4 8 2 7 11 -2 9
-8 18 -15 19 -6 1 -7 0 -1 -3z"/>
<path d="M2835 390 c-4 -6 -3 -10 2 -9 14 4 63 -23 58 -32 -3 -4 -1 -10 4 -13
5 -3 11 0 14 7 6 16 -69 61 -78 47z"/>
<path d="M4076 365 c-19 -16 -26 -30 -22 -41 8 -20 23 -9 49 35 22 37 12 40
-27 6z"/>
<path d="M5607 383 c-32 -8 -8 -20 31 -16 58 6 62 -19 9 -50 -58 -34 -114 -84
-153 -136 -54 -71 -39 -67 36 9 131 131 216 150 328 73 43 -28 59 -30 32 -3
-11 11 -20 27 -20 36 0 13 7 11 42 -8 54 -30 108 -83 108 -106 0 -10 7 -27 15
-38 8 -10 15 -29 15 -40 0 -12 6 -27 14 -33 7 -6 16 -25 20 -41 3 -19 12 -30
22 -30 13 0 14 3 4 15 -7 8 -25 52 -41 97 -15 46 -33 84 -39 86 -5 2 -10 10
-10 17 0 7 -28 37 -62 67 -83 71 -97 85 -91 92 3 3 -12 2 -32 -1 -27 -4 -36
-3 -31 5 4 8 -21 11 -86 10 -51 0 -101 -3 -111 -5z"/>
<path d="M5882 368 c3 -7 17 -15 32 -19 16 -5 40 -18 53 -31 13 -13 22 -16 18
-8 -5 15 -84 70 -99 70 -4 0 -6 -5 -4 -12z"/>
<path d="M5500 355 c0 -16 16 -20 24 -6 3 5 -1 11 -9 15 -9 3 -15 0 -15 -9z"/>
<path d="M5605 338 c-26 -14 -58 -48 -52 -54 3 -3 17 7 33 21 15 14 39 28 53
31 44 10 47 12 16 13 -16 0 -39 -5 -50 -11z"/>
<path d="M3847 324 c3 -8 12 -13 20 -10 8 3 11 2 8 -3 -3 -5 -1 -12 4 -15 14
-9 21 20 8 33 -17 17 -47 14 -40 -5z"/>
<path d="M4006 309 c-36 -28 -112 -83 -159 -115 -38 -25 -38 -26 -32 -72 3
-26 10 -51 14 -55 11 -11 221 213 221 235 0 27 -16 29 -44 7z"/>
<path d="M3113 303 c9 -2 17 -9 17 -14 0 -5 4 -9 10 -9 5 0 7 7 4 15 -4 8 -16
14 -28 14 -16 -1 -17 -2 -3 -6z"/>
<path d="M6036 238 c41 -58 59 -96 85 -183 9 -33 18 -52 18 -43 1 22 -43 157
-63 195 -17 32 -60 83 -70 83 -3 0 10 -23 30 -52z"/>
<path d="M4005 223 c-27 -32 -72 -82 -100 -111 -97 -103 -92 -112 54 -112 84
0 119 4 148 17 21 10 40 21 43 24 3 3 11 8 18 10 9 3 4 18 -19 49 -18 24 -46
75 -63 112 l-31 69 -50 -58z m25 -93 c0 -5 -8 -10 -18 -10 -31 0 -21 -30 20
-63 21 -16 38 -35 38 -41 0 -6 -25 14 -55 44 -42 41 -52 57 -43 67 12 15 58
18 58 3z m100 -70 c8 -5 11 -10 5 -10 -5 0 -17 5 -25 10 -8 5 -10 10 -5 10 6
0 17 -5 25 -10z"/>
<path d="M5695 257 c-65 -29 -133 -70 -186 -112 -24 -18 -46 -32 -50 -30 -3 3
-30 -21 -59 -53 -49 -53 -51 -57 -30 -60 14 -2 27 3 32 13 34 60 165 164 239
190 30 11 60 14 94 10 41 -6 54 -3 65 10 10 12 11 21 3 33 -15 25 -52 25 -108
-1z"/>
<path d="M3204 198 c-4 -7 -3 -8 4 -4 7 4 12 3 12 -3 0 -5 -6 -12 -12 -14 -8
-4 -7 -6 3 -6 9 -1 19 5 22 13 9 24 -15 36 -29 14z"/>
<path d="M5976 167 c3 -10 9 -15 12 -12 3 3 0 11 -7 18 -10 9 -11 8 -5 -6z"/>
<path d="M3175 150 c-17 -7 -14 -10 10 -10 3 0 23 -9 46 -21 23 -11 44 -18 47
-15 3 3 0 6 -7 6 -7 0 -9 5 -5 12 5 8 2 9 -9 5 -12 -4 -17 -1 -17 9 0 10 -6
14 -14 11 -7 -3 -17 -2 -22 3 -5 4 -18 4 -29 0z"/>
<path d="M3134 125 c29 -25 39 -29 64 -26 7 1 11 -4 10 -10 -2 -8 10 -13 32
-14 l35 -2 -49 23 c-28 12 -53 21 -57 18 -4 -2 -9 2 -12 10 -3 7 -16 16 -28
19 -21 6 -21 4 5 -18z"/>
<path d="M3777 133 c-13 -13 -7 -51 13 -74 l19 -24 1 30 c0 57 -15 87 -33 68z"/>
<path d="M3291 126 c2 -2 18 -6 34 -10 22 -5 26 -4 15 4 -14 9 -59 15 -49 6z"/>
<path d="M3355 100 c-16 -7 -11 -9 20 -9 29 -1 36 2 25 9 -17 11 -19 11 -45 0z"/>
<path d="M3428 103 c7 -3 16 -2 19 1 4 3 -2 6 -13 5 -11 0 -14 -3 -6 -6z"/>
<path d="M3727 86 c-10 -13 -28 -28 -40 -35 -13 -7 -28 -21 -35 -32 -12 -18
-9 -19 45 -19 35 1 66 6 77 15 18 14 18 16 3 33 -9 10 -17 26 -17 35 0 26 -15
27 -33 3z"/>
<path d="M4187 23 c-15 -14 -5 -23 26 -23 30 1 31 1 13 15 -22 17 -29 18 -39
8z"/>
<path d="M4520 15 l-35 -13 42 -1 c34 -1 41 2 37 14 -4 8 -7 15 -8 14 0 0 -17
-7 -36 -14z"/>
<path d="M2470 10 c0 -5 7 -10 15 -10 8 0 15 5 15 10 0 6 -7 10 -15 10 -8 0
-15 -4 -15 -10z"/>
</g>
</svg>
